<svg width="355" height="712" xmlns="http://www.w3.org/2000/svg" xmlns:xlink="http://www.w3.org/1999/xlink" overflow="hidden"><defs><clipPath id="clip0"><rect x="1372" y="82" width="355" height="712"/></clipPath><clipPath id="clip1"><rect x="1371" y="207" width="73" height="51"/></clipPath></defs><g clip-path="url(#clip0)" transform="translate(-1372 -82)"><path d="M112.287 109.541C112.287 109.541 80.5906 95.4956 65.5523 106.96L72.4389 130.122 119.363 136.992 127.548 123.208 112.287 109.541" fill="#FABA44" transform="matrix(-1.0032 0 0 1 1726.71 83.7056)"/><path d="M109.646 621.318 109.269 623.138 106.55 629.054C104.774 632.899 106.194 637.439 109.818 639.625 113.275 641.717 117.887 643.748 122.748 643.77 132.792 643.815 142.22 638.288 142.22 638.288L145.488 636.129 141.687 629.975 141.432 626.013 109.646 621.318" fill="#FDE4D4" transform="matrix(-1.0032 0 0 1 1726.71 83.7056)"/><path d="M55.5694 647.671C55.5694 647.671 55.1754 655.828 53.8602 658.464 52.5395 661.089 52.1455 664.513 52.1455 668.064 52.1455 671.616 52.8059 681.615 52.8059 681.615L56.3574 686.615C56.3574 686.615 54.909 695.694 60.9632 701.609 67.0118 707.53 77.5385 710.294 88.5869 710.294 99.6409 710.294 103.32 704.767 103.586 702.53 103.847 700.294 103.847 692.664 100.823 683.064 97.7985 673.458 95.4291 663.725 91.2172 658.065 87.011 652.41 81.09 647.671 81.09 647.671L55.5694 647.671" fill="#FABA44" transform="matrix(-1.0032 0 0 1 1726.71 83.7056)"/><path d="M91.2172 658.065C83.8535 653.592 79.0812 655.695 72.7663 657.01 66.4513 658.331 64.3815 666.355 64.3815 666.355 63.1995 662.404 55.0089 653.664 55.0089 653.664L54.3153 647.671 83.6482 648.298 91.2172 658.065" fill="#FDE4D4" transform="matrix(-1.0032 0 0 1 1726.71 83.7056)"/><g clip-path="url(#clip1)"><path d="M283.857 160.177C283.857 160.177 285.699 156.009 285.699 153.595 285.699 151.187 286.576 146.054 290.088 143.03 293.595 140.006 298.201 138.074 303.634 132.941 309.072 127.814 313.14 121.66 315.62 125.345 317.035 127.442 311.358 134.828 310.26 136.454 309.166 138.074 306.092 140.266 307.452 141.321 308.811 142.375 320.431 138.729 326.003 136.498 331.568 134.262 344.592 122.947 346.568 124.307 348.543 125.666 343.543 130.577 341.307 132.592 339.071 134.612 337.883 135.355 337.883 135.355 337.883 135.355 345.075 134.523 348.277 132.814 351.479 131.099 352.883 131.144 353.582 132.153 354.287 133.163 350.646 136.67 349.42 137.242 348.188 137.814 351.568 140.882 347.184 143.424 342.794 145.971 338.238 148.074 338.238 148.074 338.238 148.074 338.455 149.961 334.77 151.359 331.086 152.763 320.476 159.91 318.15 161.403 315.825 162.896 311.575 169.255 301.137 171.27 290.699 173.284 288.462 173.023 288.462 173.023L283.857 160.177" fill="#FDE4D4" transform="matrix(-1.0032 0 0 1 1726.71 83.7056)"/></g><path d="M49.5541 309.577C49.5541 309.577 47.8061 373.248 46.4909 382.987 45.1758 392.72 45.0814 410.084 48.0225 425.61 50.9636 441.131 52.0845 484.281 49.5541 495.335 47.0181 506.384 39.388 536.904 40.176 549.534 40.964 562.164 48.5941 648.726 48.5941 648.726 48.5941 648.726 58.0665 653.986 68.5933 655.301 79.1145 656.622 89.6413 655.301 89.6413 655.301 89.6413 655.301 84.1143 642.671 88.5869 634.52 93.0596 626.362 87.5381 616.89 85.9566 607.151 84.3807 597.418 92.0108 555.061 93.3259 542.953 94.6411 530.856 102.271 505.857 105.162 489.281 108.059 472.706 111.477 441.131 115.689 436.398 115.689 436.398 120.162 476.918 118.847 490.596 117.531 504.281 112.271 541.377 110.95 565.582 109.635 589.788 109.635 625.308 109.635 625.308 109.635 625.308 121.477 631.623 131.21 631.889 140.949 632.15 148.84 623.205 148.84 623.205 148.84 623.205 153.052 582.685 158.051 566.37 163.046 550.061 165.415 505.329 168.045 491.384 170.681 477.445 177.784 424.556 181.463 407.72 185.148 390.878 189.887 370.707 189.887 355.008 189.887 339.309 180.148 301.42 180.148 301.42 180.148 301.42 154.367 314.577 127.531 314.316 100.69 314.05 49.5541 309.577 49.5541 309.577" fill="#8FD8B7" transform="matrix(-1.0032 0 0 1 1726.71 83.7056)"/><path d="M133.119 325.708C133.918 329.404 138.568 351.634 137.281 363.837 136.127 374.824 134.595 385.811 134.107 389.246 136.104 388.076 140.893 384.951 144.722 379.935 148.013 375.618 145.705 364.591 143.846 355.735 142.935 351.412 142.153 347.683 142.153 345.358 142.153 339.193 139.772 327.257 139.256 324.754 137.22 325.098 135.167 325.414 133.119 325.708ZM133.402 390.811 133.086 390.706C132.919 390.589 132.83 390.39 132.864 390.184 132.88 390.051 134.806 376.888 136.193 363.72 137.47 351.59 132.769 329.265 132.031 325.864 91.2783 331.524 49.5874 327.579 48.9825 327.517 48.6773 327.49 48.4609 327.223 48.4886 326.924 48.5164 326.619 48.7661 326.397 49.0879 326.43 49.9592 326.513 136.92 334.748 182.14 310.176 182.407 310.032 182.74 310.132 182.884 310.393 183.028 310.665 182.928 310.998 182.662 311.142 170.676 317.651 155.782 321.88 140.338 324.565 140.882 327.196 143.252 339.032 143.252 345.358 143.252 347.567 144.023 351.251 144.917 355.513 146.82 364.586 149.189 375.884 145.594 380.601 140.488 387.288 133.929 390.617 133.652 390.756L133.402 390.811" fill="#431644" transform="matrix(-1.0032 0 0 1 1726.71 83.7056)"/><path d="M121.477 118.386C121.477 118.386 106.722 108.708 96.55 110.29 86.3728 111.866 76.573 121.543 69.0317 122.77 69.0317 122.77 98.3257 213.832 93.0596 238.204 87.799 262.57 87.799 307.823 87.799 307.823 87.799 307.823 105.689 312.474 123.846 312.734 141.998 312.995 171.203 306.159 171.203 306.159 171.203 306.159 146.47 190.386 143.84 161.187 141.21 131.976 121.477 118.386 121.477 118.386" fill="#ED7C5D" transform="matrix(-1.0032 0 0 1 1726.71 83.7056)"/><path d="M66.2238 107.071C66.2238 107.071 65.519 105.889 62.7999 109.768 60.0864 113.647 52.9779 122.947 42.2791 126.105 31.5803 129.257 12.9906 124.523 9.03959 141.365 5.09414 158.201 10.4435 186.441 5.71009 201.701 0.971105 216.961 16.4977 233.537 21.7583 235.118 27.0189 236.694 35.7034 234.852 38.6 232.222 41.4911 229.591 44.6486 227.222 44.6486 227.222 44.6486 227.222 40.7032 264.851 38.8608 268.269 37.0185 271.693 26.7581 284.933 27.4573 285.899 28.162 286.864 30.7923 287.036 31.0531 287.652 31.3195 288.268 10.6211 357.111 9.56677 358.166 8.51243 359.214 24.4774 362.549 31.3195 364.653 38.1561 366.761 66.4014 372.549 73.4155 367.46 80.4296 362.377 84.2919 355.535 91.8332 330.803 99.3745 306.07 108.497 261.693 109.025 241.522 109.552 221.345 100.079 191.002 92.0108 167.851 83.9423 144.695 85.2963 108.631 66.2238 107.071" fill="#FABA44" transform="matrix(-1.0032 0 0 1 1726.71 83.7056)"/><path d="M113.403 109.635C112.676 109.246 111.938 110.151 112.471 110.789 115.828 114.801 121.899 122.648 124.196 129.351 127.442 138.818 133.402 151.187 134.368 167.496 135.333 183.811 140.51 202.228 141.998 208.982 143.49 215.735 148.052 237.488 153.052 259.585 158.051 281.687 163.312 296.159 167.524 317.473 171.73 338.782 183.7 365.884 188.966 366.806 194.226 367.727 200.675 359.042 200.675 354.043 200.675 349.043 195.675 334.049 194.62 322.995 193.572 311.947 187.124 291.426 187.124 289.977 187.124 288.529 188.833 289.45 188.966 286.293 189.093 283.135 183.178 262.742 182.651 252.615 182.174 243.464 182.451 221.334 182.507 217.133 182.512 216.728 182.834 216.401 183.234 216.39 185.181 216.357 191.058 216.762 200.675 221.828 212.644 228.149 225.141 231.961 230.929 231.434 236.722 230.906 248.031 222.882 261.976 218.016 275.921 213.149 294.472 202.362 298.284 200.78 302.102 199.204 298.157 185.52 295.133 174.211 292.208 163.295 289.045 159.361 285.05 156.969 284.783 156.808 284.45 156.831 284.206 157.019 281.715 158.934 268.091 169.3 260.933 172.507 253.031 176.053 245.928 180.392 243.692 184.205 241.455 188.022 220.407 187.495 216.59 184.071 212.777 180.653 201.069 171.841 195.542 167.102 190.02 162.369 186.463 153.945 180.675 146.315 174.888 138.69 178.311 131.715 160.682 126.848 143.052 121.982 137.131 124.612 130.294 120.14 124.934 116.632 118.036 112.104 113.403 109.635" fill="#FABA44" transform="matrix(-1.0032 0 0 1 1726.71 83.7056)"/><path d="M13.0738 165.054C13.0738 165.054 10.105 170.526 11.681 175.942 13.2514 181.352 18.512 195.214 22.0247 200.652 25.5317 206.085 21.4975 212.406 27.1077 210.824 32.7234 209.248 35.5258 206.44 35.5258 195.214 35.5258 183.988 36.5801 184.338 35.5258 177.146 34.477 169.954 20.9703 162.08 13.0738 165.054" fill="#431644" transform="matrix(-1.0032 0 0 1 1726.71 83.7056)"/><path d="M34.5658 203.982C34.5658 203.982 25.1766 200.564 19.916 191.702 14.6554 182.845 13.1626 177.585 13.1626 173.023 13.1626 168.462 12.3746 164.078 11.3203 163.201 10.2715 162.324 5.09414 149.522 5.44373 141.803 5.79888 134.085-0.255262 133.469 0.0110983 128.469 0.271909 123.469 7.20282 127.681 8.95636 129.873 10.7099 132.065 9.47798 134.612 14.5666 137.769 19.6552 140.921 25.3542 143.907 29.0388 149.961 32.7234 156.009 30.7036 161.187 34.2106 164.516 37.7177 167.851 37.8731 175.842 36.8243 177.335 35.7699 178.822 36.508 180.831 36.7743 188.344 37.0684 196.624 34.5658 203.982 34.5658 203.982" fill="#FDE4D4" transform="matrix(-1.0032 0 0 1 1726.71 83.7056)"/><path d="M109.269 623.138C109.269 623.138 104.125 627.872 103.692 631.823 103.259 635.768 102.166 646.417 102.366 650.429 102.565 654.441 102.36 661.35 102.36 661.35 102.36 661.35 115.822 666.289 119.962 666.355 124.107 666.422 123.319 663.858 123.319 663.858 123.319 663.858 130.161 664.252 134.701 668.131 139.24 672.01 146.076 678.852 157.852 679.446 169.627 680.034 184.166 680.694 188.111 678.125 192.057 675.561 189.032 668.852 189.032 668.852 189.032 668.852 189.36 665.234 184.754 661.949 180.148 658.659 165.51 651.478 159.849 646.545 154.195 641.612 151.764 637.871 148.74 633.976 147.031 631.767 141.687 629.975 141.687 629.975L141.776 631.368C141.776 631.368 138.968 632.034 136.559 632.544 128.214 634.309 133.596 638.249 128.43 639.553 123.119 640.89 118.092 640.18 112.781 636.412 109.08 633.782 107.82 630.28 108.02 629.159 108.214 628.044 109.269 623.138 109.269 623.138" fill="#FABA44" transform="matrix(-1.0032 0 0 1 1726.71 83.7056)"/><path d="M118.009 124.856C121.499 131.116 117.026 138.962 109.868 138.646 109.091 138.613 108.275 138.541 107.399 138.424 93.4536 136.582 84.0533 132.769 84.0533 132.769 84.0533 132.769 80.9402 122.193 77.4497 114.33 75.674 110.351 70.4578 109.18 69.9251 104.491 68.3491 90.5402 64.9697 78.1545 64.9697 78.1545 64.9697 78.1545 58.9211 79.4696 56.6848 77.2333 54.4484 74.997 49.5763 69.3369 49.9703 63.8154 50.3698 58.2885 51.5573 57.2952 51.5573 57.2952 45.936 46.1191 48.9992 24.039 59.365 17.3134 69.7309 10.5878 94.8963 8.10179 109.219 16.7252 123.547 25.3542 121.732 44.5654 121.732 44.5654 121.088 46.8072 120.517 48.8049 120.617 50.9192 120.883 56.4461 121.41 74.0759 120.356 79.7305 119.302 85.3851 111.405 90.6512 111.472 95.651 111.533 99.9516 110.384 111.194 118.009 124.856" fill="#FDE4D4" transform="matrix(-1.0032 0 0 1 1726.71 83.7056)"/><path d="M122.853 30.3983C121.011 20.1379 113.908 18.4288 110.356 13.2958 106.805 8.16283 104.963 6.45368 101.544 6.98085 98.1204 7.50802 95.3625 2.76904 86.678 0.405089 78.8204-1.73689 72.4888 5.15518 69.3979 9.11728 63.5435 10.2604 62.4226 11.1982 52.7504 15.9483 42.0294 21.2089 42.4178 42.0627 42.4178 42.0627L44.9538 35.437C44.9538 35.437 44.5654 39.5323 44.9538 45.1813 45.3423 50.8359 51.5573 57.2952 51.5573 57.2952 47.4454 42.5177 54.5039 34.6601 54.5039 34.6601L53.3331 40.1149C53.3331 40.1149 58.5937 33.8777 67.1727 30.759 75.7462 27.6404 73.643 30.193 79.8747 28.6337 86.112 27.0744 89.78 22.1856 89.78 22.1856L82.8657 31.7357 85.8345 30.7646C93.6977 28.2064 100.801 23.7116 106.489 17.7018L110.7 21.9692C115.5 26.8302 118.891 32.901 120.511 39.5378L121.732 44.5654 121.738 44.5654C122.77 40.9584 123.991 36.7299 122.853 30.3983" fill="#431644" transform="matrix(-1.0032 0 0 1 1726.71 83.7056)"/><path d="M73.6985 26.5195C73.6985 26.5195 74.431 43.3335 69.7531 48.3 65.0751 53.272 64.8753 52.8114 64.8753 52.8114L66.3903 69.4978 59.1763 59.8922C57.4117 57.5449 54.393 56.5127 51.5573 57.2952 51.5573 57.2952 47.9726 46.8405 48.8493 38.7998 49.7261 30.759 66.246 23.8892 66.246 23.8892L73.6985 26.5195" fill="#431644" transform="matrix(-1.0032 0 0 1 1726.71 83.7056)"/><path d="M105.079 45.1203C104.935 45.1203 104.785 45.0592 104.68 44.9427 104.469 44.7263 104.48 44.3767 104.702 44.1714 104.807 44.0715 107.277 41.7686 110.19 41.2303 113.281 40.6643 115.839 44.0992 115.944 44.2435 116.127 44.4877 116.072 44.8317 115.828 45.0093 115.589 45.1869 115.245 45.1369 115.062 44.8928 115.04 44.865 112.798 41.8685 110.39 42.3124 107.798 42.7841 105.479 44.9483 105.451 44.9649 105.345 45.0703 105.212 45.1203 105.079 45.1203ZM77.4997 46.8017 77.2167 46.724C76.9559 46.5631 76.8726 46.2301 77.0336 45.9693 77.1612 45.764 80.1577 40.914 84.6359 40.3758 89.1585 39.843 92.1828 43.2613 92.3104 43.4111 92.5102 43.6387 92.488 43.9827 92.2605 44.1825 92.033 44.3823 91.6834 44.3601 91.4836 44.1325 91.4558 44.0992 88.6813 40.9973 84.7635 41.4634 80.8125 41.9351 77.9991 46.4965 77.9714 46.5409 77.8659 46.7074 77.6828 46.8017 77.4997 46.8017ZM103.165 66.0851C100.873 66.0851 98.7863 64.6256 98.6587 64.5368 98.4145 64.3593 98.3535 64.0152 98.531 63.771 98.7031 63.5269 99.0471 63.4603 99.2968 63.6434 99.3357 63.6656 103.076 66.2793 105.49 64.1206 107.271 62.528 103.592 54.5483 100.856 49.8926 100.701 49.6318 100.79 49.2988 101.05 49.1434 101.311 48.9881 101.644 49.0768 101.799 49.3377 103.059 51.4796 109.185 62.2839 106.222 64.9364 105.268 65.7909 104.197 66.0851 103.165 66.0851ZM304.072 151.376C303.906 151.376 303.739 151.298 303.634 151.154 303.451 150.91 303.506 150.566 303.745 150.388 307.618 147.508 306.58 140.871 306.569 140.805 306.519 140.505 306.725 140.222 307.024 140.172 307.319 140.128 307.602 140.327 307.651 140.627 307.701 140.921 308.806 147.985 304.4 151.265ZM348.66 138.33 348.66 138.335ZM348.66 138.335 348.66 138.341ZM323.949 153.518C323.677 153.518 323.444 153.318 323.406 153.041L321.502 138.03C321.463 137.73 321.674 137.458 321.974 137.42 322.251 137.386 322.551 137.592 322.59 137.891L322.828 139.778C328.416 137.919 337.817 134.812 338.166 134.767 338.472 134.734 338.743 134.945 338.777 135.244 338.816 135.533 338.616 135.799 338.333 135.849 337.767 135.988 328.96 138.896 323.15 140.821L322.967 140.849 323.555 145.505C325.858 144.456 339.204 138.441 343.943 137.714 348.504 137.009 349.215 137.536 349.448 137.714 349.564 137.803 349.725 138.03 349.742 138.18 349.786 138.48 349.575 138.757 349.276 138.796 349.076 138.824 348.876 138.735 348.76 138.579 348.577 138.502 347.639 138.246 344.109 138.796 339.215 139.55 324.094 146.465 323.7 146.648L324.138 150.094C325.603 149.295 330.192 146.87 333.289 146.198 337.245 145.344 338.655 147.697 338.71 147.797 338.86 148.063 338.771 148.396 338.51 148.546 338.255 148.696 337.917 148.612 337.761 148.351 337.711 148.263 336.64 146.592 333.522 147.269 330.237 147.98 324.937 150.904 324.288 151.265L324.499 152.902C324.532 153.201 324.321 153.473 324.022 153.512ZM27.4739 178.933C26.8025 178.933 26.3419 178.739 26.07 178.572 25.7981 178.644 25.5206 178.672 25.2487 178.661 23.3565 178.567 22.23 176.164 21.8637 175.232 21.2755 175.171 20.6096 174.999 19.8549 174.704 16.2369 173.301 8.0352 155.449 7.10848 153.418 6.9864 153.146 7.10848 152.819 7.38039 152.691 7.6634 152.563 7.98525 152.691 8.10734 152.968 11.6644 160.776 17.8295 172.74 20.2489 173.683 21.0369 173.989 21.6917 174.144 22.2189 174.155L22.291 174.155C22.6628 174.15 22.968 174.066 23.2011 173.911 23.7116 173.561 23.9724 172.74 23.978 171.469 23.9835 170.343 23.0401 168.639 22.1301 166.991 21.1035 165.138 20.1435 163.395 20.149 161.98 20.1546 159.589 18.2124 154.933 18.1902 154.888 18.0736 154.611 18.2068 154.289 18.4843 154.173 18.7673 154.05 19.0836 154.184 19.2001 154.461 19.2889 154.661 21.2533 159.372 21.2422 161.986 21.2367 163.112 22.18 164.816 23.0901 166.464 24.1111 168.312 25.0767 170.06 25.0767 171.469 25.0711 173.151 24.6605 174.244 23.817 174.815 23.5784 174.976 23.3176 175.093 23.0235 175.165 23.4508 176.136 24.2776 177.512 25.2987 177.562 25.4984 177.579 25.7037 177.546 25.9091 177.474L26.0422 177.424C26.4085 177.274 26.7747 177.002 27.1021 176.63 27.9123 175.714 28.3285 174.394 28.1454 173.334 27.7625 171.159 24.0445 159.688 24.0057 159.572 23.9114 159.283 24.0723 158.973 24.3553 158.884 24.655 158.784 24.9546 158.945 25.0489 159.233 25.1988 159.711 28.8335 170.892 29.2219 173.145 29.4661 174.532 28.9556 176.186 27.9234 177.357 27.768 177.535 27.6071 177.695 27.4351 177.834 27.7236 177.823 28.1731 177.784 28.7058 177.596L28.9889 177.39 29.1442 177.174C29.9822 175.87 30.759 171.897 31.0587 168.323 31.0864 168.018 31.314 167.796 31.6525 167.824 31.9577 167.846 32.1796 168.112 32.1574 168.412 32.0298 169.855 31.658 173.461 30.8201 175.992 31.6414 174.821 32.5792 172.868 33.234 171.014 33.3394 170.726 33.6502 170.576 33.9332 170.676 34.2217 170.776 34.3716 171.092 34.2661 171.375 33.7112 172.956 31.7967 177.923 29.738 178.145 29.5327 178.378 29.3107 178.55 29.0665 178.633 28.4395 178.85 27.9123 178.933 27.4739 178.933ZM229.136 198.927C228.992 198.927 228.853 198.877 228.748 198.766 228.531 198.549 228.537 198.205 228.748 197.989L240.04 186.852C238.281 187.279 235.768 187.911 234.486 188.311 232.477 188.933 227.965 192.146 227.921 192.173 227.677 192.351 227.327 192.295 227.155 192.046 226.978 191.801 227.033 191.457 227.283 191.285 227.477 191.147 231.983 187.939 234.164 187.262 236.1 186.657 240.645 185.575 241.55 185.359L243.658 183.278C243.875 183.067 244.224 183.067 244.435 183.283 244.646 183.5 244.646 183.844 244.43 184.06L242.232 186.23 242.193 186.269 229.519 198.771C229.414 198.877 229.275 198.927 229.136 198.927ZM182.462 221.351C182.163 221.345 181.918 221.101 181.918 220.801 181.963 198.472 180.559 153.44 180.548 152.985 180.537 152.685 180.775 152.436 181.08 152.425 181.363 152.397 181.63 152.652 181.641 152.952 181.658 153.407 183.062 198.455 183.012 220.801 183.012 221.107 182.767 221.351 182.462 221.351ZM146.986 225.829 146.959 225.823C146.659 225.812 146.426 225.552 146.437 225.252L150.516 138.89 131.488 126.582C131.338 126.482 131.243 126.316 131.238 126.133 131.238 125.949 131.321 125.777 131.471 125.672L136.437 122.232C136.687 122.06 137.031 122.121 137.203 122.37 137.375 122.62 137.314 122.958 137.064 123.131L132.769 126.105 151.376 138.141C151.542 138.246 151.637 138.43 151.625 138.624L147.536 225.302C147.519 225.596 147.28 225.829 146.986 225.829ZM44.6486 227.771 44.3878 227.705C44.1214 227.56 44.0216 227.227 44.1658 226.961 44.2602 226.789 53.5051 209.537 50.1589 190.747 46.8017 171.869 35.6479 154.289 35.5369 154.112 35.3704 153.856 35.4481 153.518 35.7034 153.357 35.9531 153.196 36.2916 153.268 36.458 153.518 36.569 153.695 47.8394 171.464 51.241 190.558 54.6538 209.731 45.2257 227.311 45.1314 227.488 45.0315 227.671 44.8428 227.771 44.6486 227.771ZM108.081 227.771C107.892 227.771 107.709 227.677 107.609 227.499 107.46 227.244 92.8709 201.818 84.4916 190.853 76.3233 180.159 67.7831 164.638 62.6834 155.36 61.7345 153.634 60.9188 152.153 60.2695 150.998 56.2353 143.846 49.887 132.359 49.826 132.242 49.6817 131.981 49.776 131.654 50.0313 131.504L56.5904 127.725C52.9835 126.815 46.9404 124.94 46.6519 124.845 46.3578 124.756 46.1968 124.451 46.2856 124.157 46.38 123.869 46.6852 123.713 46.9737 123.802 47.0569 123.824 55.0866 126.327 58.1775 126.971 58.3995 127.015 58.5715 127.192 58.6103 127.42 58.6436 127.642 58.5382 127.869 58.344 127.98L51.0468 132.187C52.2843 134.423 57.6559 144.134 61.224 150.46 61.8788 151.62 62.6945 153.102 63.6434 154.833 68.732 164.083 77.2444 179.56 85.3629 190.187 93.7865 201.213 108.414 226.695 108.558 226.95 108.708 227.216 108.619 227.549 108.353 227.699ZM62.75 291.947C55.4029 291.947 39.8819 290.599 30.9144 288.179 30.6203 288.102 30.4483 287.802 30.526 287.508 30.6037 287.219 30.9033 287.042 31.1974 287.12 43.1725 290.349 64.0707 291.154 66.0351 290.715 66.7454 289.023 68.4823 273.025 66.7842 271.177L66.6122 271.143C63.2272 272.57 41.8352 268.796 39.4046 268.358 39.1105 268.308 38.9108 268.019 38.9607 267.725 39.0162 267.426 39.2937 267.231 39.5989 267.281 46.108 268.447 63.5768 271.232 66.1849 270.134 66.7953 269.878 67.3669 270.067 67.7609 270.65 69.631 273.43 67.7886 290.543 66.7898 291.548 66.5179 291.814 65.0307 291.947 62.75 291.947ZM112.293 448.201 112.16 448.184C111.866 448.112 111.688 447.818 111.76 447.524L124.435 395.295C124.501 395.001 124.795 394.818 125.095 394.89 125.389 394.962 125.567 395.256 125.494 395.55L112.826 447.785C112.765 448.034 112.537 448.201 112.293 448.201ZM155.238 529.579 154.927 529.485C154.678 529.313 154.616 528.974 154.783 528.725L161.719 518.531C161.891 518.281 162.23 518.22 162.48 518.387 162.729 518.559 162.796 518.897 162.624 519.147L155.693 529.341C155.582 529.496 155.41 529.579 155.238 529.579ZM70.3635 539.351C70.1581 539.351 69.9639 539.235 69.8696 539.041 69.7364 538.769 69.8529 538.441 70.1248 538.308 78.21 534.413 85.1686 528.442 90.2517 521.039 90.4237 520.789 90.7622 520.728 91.0119 520.9 91.2616 521.073 91.3282 521.411 91.1562 521.661 85.9622 529.219 78.8592 535.317 70.6021 539.296ZM130.511 626.629C124.79 626.629 118.514 624.315 112.97 622.267 111.755 621.823 110.578 621.385 109.441 620.991 109.152 620.885 109.002 620.575 109.102 620.292 109.202 620.003 109.513 619.853 109.801 619.953 110.945 620.353 112.132 620.791 113.347 621.241 118.885 623.283 125.189 625.58 130.755 625.536 136.887 625.458 142.852 623.061 149.006 618.211 149.245 618.022 149.589 618.061 149.772 618.299 149.961 618.538 149.922 618.882 149.683 619.071 143.335 624.076 137.148 626.551 130.772 626.629ZM133.685 644.32 133.485 644.281 122.97 640.208C122.687 640.097 122.548 639.78 122.659 639.497 122.77 639.214 123.086 639.076 123.369 639.187L130.367 641.895 126.921 639.231C126.676 639.048 126.632 638.704 126.821 638.465 127.004 638.227 127.348 638.177 127.592 638.365L134.024 643.337C134.234 643.504 134.295 643.803 134.162 644.042 134.062 644.214 133.879 644.32 133.685 644.32ZM84.93 650.113C64.1817 650.113 47.7672 640.973 47.5952 640.873 47.3289 640.724 47.2401 640.391 47.3843 640.13 47.5342 639.864 47.8727 639.775 48.1335 639.925 48.3111 640.019 65.9963 649.858 87.7546 648.959 88.1041 648.931 88.3095 649.181 88.3206 649.486 88.3317 649.785 88.0986 650.041 87.799 650.057 86.8334 650.096 85.8734 650.113 84.93 650.113ZM62.9886 675.35 62.9775 675.35C62.7001 675.35 62.467 675.134 62.4392 674.857L61.2628 661.883C61.2351 661.583 61.457 661.317 61.7567 661.289 62.0841 661.261 62.3227 661.489 62.3505 661.788L63.0497 669.463 63.4159 666.289C63.4492 665.989 63.7045 665.784 64.0263 665.811 64.326 665.845 64.5424 666.117 64.5035 666.416L63.5324 674.868C63.4991 675.145 63.2661 675.35 62.9886 675.35ZM175.997 676.183C170.465 676.183 164.172 675.439 157.424 674.635L154.378 674.274C143.984 673.064 139.19 668.359 136.021 665.24 134.556 663.808 133.408 662.676 132.231 662.365 130.084 661.799 128.907 661.949 127.276 662.16 125.944 662.332 124.29 662.543 121.666 662.382 115.939 662.032 102.754 656.628 102.199 656.395 101.916 656.278 101.783 655.962 101.899 655.679 102.01 655.401 102.332 655.268 102.61 655.385 102.748 655.44 116.188 660.95 121.732 661.289 124.251 661.439 125.783 661.245 127.137 661.072 128.818 660.856 130.156 660.684 132.509 661.306 133.968 661.688 135.211 662.909 136.787 664.457 140.033 667.648 144.484 672.021 154.506 673.186L157.558 673.547C170.925 675.134 182.473 676.505 189.604 672.237 189.865 672.082 190.203 672.165 190.359 672.426 190.509 672.687 190.425 673.025 190.164 673.181 186.424 675.417 181.597 676.183 175.997 676.183ZM85.4461 706.67C77.0669 706.67 67.1172 703.119 61.8233 697.952 57.6392 693.868 56.6071 687.475 56.3962 683.552L52.0678 677.259C51.8958 677.01 51.9624 676.671 52.2121 676.499 52.4618 676.327 52.8003 676.388 52.9724 676.643L56.3463 681.549C56.3518 680.733 56.3907 680.217 56.4017 680.123 56.4239 679.823 56.6848 679.601 56.9844 679.618 57.2896 679.64 57.5171 679.906 57.4894 680.206 57.4838 680.317 56.707 691.426 62.5891 697.164 68.3547 702.791 80.3908 706.537 88.881 705.349 96.9495 704.217 103.276 698.946 103.337 698.896 103.57 698.701 103.914 698.729 104.108 698.957 104.308 699.19 104.28 699.539 104.047 699.734 103.781 699.956 97.4268 705.255 89.0309 706.431 87.8822 706.592 86.6836 706.67 85.4461 706.67" fill="#431644" transform="matrix(-1.0032 0 0 1 1726.71 83.7056)"/><path d="M102.882 84.9411C100.834 84.9411 98.7475 84.0089 97.5211 83.2042 97.2658 83.0378 97.1992 82.7048 97.3657 82.4495 97.5322 82.1943 97.8707 82.1277 98.1259 82.2942 98.1759 82.3219 103.425 85.6958 106.056 82.4052 106.25 82.1721 106.594 82.1332 106.833 82.3219 107.066 82.5106 107.105 82.8546 106.916 83.0933 105.823 84.4528 104.363 84.9411 102.882 84.9411" fill="#ED7C5D" transform="matrix(-1.0032 0 0 1 1726.71 83.7056)"/><path d="M69.1204 79.7305C69.1204 79.7305 74.0925 93.7588 80.8125 98.7808 91.8998 107.06 110.761 104.086 110.761 104.086L113.192 110.118C111.855 103.392 111.505 97.8374 111.472 95.651 111.405 90.6512 119.302 85.3851 120.356 79.7305 120.356 79.7305 114.579 90.851 102.155 92.7377 87.7324 94.9241 69.1204 79.7305 69.1204 79.7305" fill="#431644" transform="matrix(-1.0032 0 0 1 1726.71 83.7056)"/><path d="M111.028 49.6151C111.028 50.9081 109.979 51.9569 108.686 51.9569 107.388 51.9569 106.339 50.9081 106.339 49.6151 106.339 48.3277 107.388 47.2789 108.686 47.2789 109.979 47.2789 111.028 48.3277 111.028 49.6151" fill="#431644" transform="matrix(-1.0032 0 0 1 1726.71 83.7056)"/><path d="M88.3539 49.0325C88.3539 50.3254 87.3051 51.3687 86.0066 51.3687 84.7136 51.3687 83.6648 50.3254 83.6648 49.0325 83.6648 47.7395 84.7136 46.6907 86.0066 46.6907 87.3051 46.6907 88.3539 47.7395 88.3539 49.0325" fill="#431644" transform="matrix(-1.0032 0 0 1 1726.71 83.7056)"/><path d="M91.2172 68.6765 109.729 70.9017C110.645 71.0127 110.939 72.1947 110.173 72.7108 108.109 74.0981 104.757 75.9459 101.478 75.9459 98.0594 75.9459 93.3537 72.7052 90.4792 70.4356 89.6968 69.8141 90.2239 68.5544 91.2172 68.6765" fill="#431644" transform="matrix(-1.0032 0 0 1 1726.71 83.7056)"/><path d="M108.225 71.3401C108.508 71.3679 108.697 71.6564 108.592 71.9228 108.397 72.3834 107.892 73.0326 106.533 73.3767 104.513 73.8872 95.7731 72.0782 93.6811 71.6398 93.4591 71.5898 92.8709 71.157 92.6045 70.763L92.1994 70.0028C92.2272 69.7697 92.438 69.5977 92.6767 69.6254L108.225 71.3401" fill="#FDE4D4" transform="matrix(-1.0032 0 0 1 1726.71 83.7056)"/></g></svg>