<?xml version="1.0" standalone="no"?>
<!DOCTYPE svg PUBLIC "-//W3C//DTD SVG 20010904//EN"
 "http://www.w3.org/TR/2001/REC-SVG-20010904/DTD/svg10.dtd">
<svg version="1.0" xmlns="http://www.w3.org/2000/svg"
 width="1024.000000pt" height="971.000000pt" viewBox="0 0 1024.000000 971.000000"
 preserveAspectRatio="xMidYMid meet">

<g transform="translate(0.000000,971.000000) scale(0.100000,-0.100000)"
fill="#000000" stroke="none">
<path d="M0 4855 l0 -4855 5120 0 5120 0 0 4855 0 4855 -5120 0 -5120 0 0
-4855z m5450 2191 c182 -29 291 -54 420 -97 148 -48 409 -173 536 -257 107
-70 302 -232 395 -329 286 -294 511 -679 624 -1069 101 -346 127 -706 71 -997
-36 -187 -99 -429 -142 -545 -132 -352 -374 -695 -669 -949 -457 -393 -1154
-627 -1736 -583 -161 12 -404 51 -504 81 -327 98 -686 299 -930 521 -397 360
-661 797 -788 1303 -51 203 -62 300 -62 550 0 270 23 433 91 652 40 128 123
341 144 368 4 6 25 44 46 85 34 67 167 276 226 355 88 117 303 341 427 443
145 121 382 257 597 343 152 60 418 119 649 143 97 10 504 -2 605 -18z"/>
<path d="M4905 6553 c-16 -2 -84 -10 -150 -18 -309 -38 -550 -138 -785 -326
-391 -312 -670 -815 -796 -1434 -35 -173 -37 -290 -6 -366 54 -133 246 -408
350 -499 42 -38 133 -80 171 -80 28 0 33 -25 9 -47 -67 -60 61 -338 255 -553
219 -242 541 -414 891 -475 107 -18 168 -19 213 -3 29 10 39 10 67 -6 29 -15
59 -18 212 -18 207 0 306 11 494 54 178 40 304 85 475 169 135 66 342 195 395
246 14 13 55 53 93 87 37 35 67 68 67 74 0 6 14 20 30 32 17 12 30 26 30 32 0
6 22 39 50 73 27 35 56 79 64 99 8 20 20 36 26 36 6 0 15 11 20 25 5 13 26 55
47 92 72 128 158 369 187 523 10 49 28 104 48 139 32 57 32 60 17 92 -15 32
-17 33 -71 30 -50 -2 -58 1 -98 34 -24 20 -65 51 -90 68 -108 73 -308 242
-400 337 -30 31 -75 84 -100 119 l-45 62 -65 -5 c-38 -2 -52 -1 -35 3 17 4 45
13 64 21 34 13 34 13 10 22 -22 9 -22 10 -6 19 20 11 20 5 -14 189 -39 207
-94 404 -111 394 -4 -3 -5 1 -3 9 8 20 -43 129 -57 121 -7 -4 -8 -3 -4 5 10
15 -82 144 -96 135 -7 -4 -8 -2 -4 5 8 13 -150 181 -170 181 -6 0 -19 10 -30
22 -32 36 -179 126 -281 171 -109 49 -318 103 -408 106 -11 0 -65 3 -121 7
-89 6 -102 4 -118 -12 -18 -17 -18 -18 0 -25 17 -7 17 -8 1 -8 -14 -1 -16 -7
-12 -28 5 -24 4 -25 -5 -8 -9 16 -10 14 -6 -15 4 -32 4 -33 -6 -10 -5 14 -16
40 -24 58 -20 47 -62 59 -169 45z m322 -29 c-3 -3 -12 -4 -19 -1 -8 3 -5 6 6
6 11 1 17 -2 13 -5z m-127 -119 c0 -5 -5 -3 -10 5 -5 8 -10 20 -10 25 0 6 5 3
10 -5 5 -8 10 -19 10 -25z m765 -24 c-9 -8 -36 -10 -30 -2 2 4 11 8 20 8 8 0
13 -3 10 -6z m45 -16 c0 -2 -6 -5 -13 -8 -8 -3 -14 1 -14 8 0 7 6 11 14 8 7
-3 13 -6 13 -8z m-826 -10 c3 -8 1 -15 -4 -15 -6 0 -10 7 -10 15 0 8 2 15 4
15 2 0 6 -7 10 -15z m882 -36 c3 -6 -5 -3 -20 6 -14 10 -26 19 -26 22 0 7 39
-17 46 -28z m-865 -2 c-10 -9 -11 -8 -5 6 3 10 9 15 12 12 3 -3 0 -11 -7 -18z
m904 -26 c3 -5 2 -12 -3 -15 -5 -3 -9 1 -9 9 0 17 3 19 12 6z m-607 -84 c25
-20 4 -18 -29 3 -28 18 -29 20 -9 15 14 -4 31 -12 38 -18z m152 -57 c45 -24
28 -24 -25 0 -22 10 -33 19 -25 19 8 0 31 -8 50 -19z m-314 -206 c205 -68 426
-204 569 -350 194 -197 339 -488 340 -681 0 -72 -3 -84 -24 -107 -38 -41 -73
-42 -145 -7 -70 34 -92 57 -283 296 -105 132 -262 316 -481 566 -37 42 -91 94
-120 115 -30 21 -58 47 -63 56 -15 28 -11 100 8 120 24 27 104 23 199 -8z
m-1116 -88 c20 -13 47 -48 64 -80 86 -165 525 -696 905 -1095 424 -446 1020
-918 1371 -1087 52 -25 102 -49 110 -53 8 -5 16 -19 18 -33 2 -20 -8 -36 -50
-72 -126 -112 -372 -252 -484 -276 -63 -14 -102 -2 -268 81 -457 228 -1191
867 -1703 1482 -179 214 -443 594 -443 636 0 9 20 46 45 83 25 37 45 70 45 72
0 13 170 262 214 314 50 58 117 69 176 28z m2337 -208 c-3 -8 -6 -5 -6 6 -1
11 2 17 5 13 3 -3 4 -12 1 -19z m40 -160 c-3 -8 -6 -5 -6 6 -1 11 2 17 5 13 3
-3 4 -12 1 -19z m9 -65 c-11 -11 -17 4 -9 23 7 18 8 18 11 1 2 -10 1 -21 -2
-24z m36 -151 c4 -23 2 -42 -2 -42 -12 0 -21 32 -19 66 1 16 -1 47 -4 69 l-7
40 13 -45 c8 -25 16 -64 19 -88z m-204 87 c-3 -8 -7 -3 -11 10 -4 17 -3 21 5
13 5 -5 8 -16 6 -23z m169 -71 c-2 -13 -4 -3 -4 22 0 25 2 35 4 23 2 -13 2
-33 0 -45z m-110 9 c1 -11 1 -18 0 -16 -2 2 -8 11 -15 20 -9 12 -9 16 1 16 7
0 14 -9 14 -20z m90 -9 c-3 -8 -6 -5 -6 6 -1 11 2 17 5 13 3 -3 4 -12 1 -19z
m-104 -20 c6 -22 5 -22 -8 -4 -17 22 -20 40 -6 32 5 -3 11 -16 14 -28z m66
-90 c16 -6 21 -12 13 -15 -15 -6 -52 24 -51 41 0 6 3 5 6 -2 3 -7 17 -18 32
-24z m-2546 -619 c46 -21 66 -76 77 -211 13 -166 59 -304 158 -468 95 -157
254 -324 408 -427 110 -74 134 -87 247 -129 99 -37 133 -62 146 -110 11 -41
-2 -104 -26 -122 -34 -26 -166 -10 -258 31 -317 141 -542 333 -697 599 -58 97
-104 196 -133 283 -55 164 -91 441 -66 502 22 53 89 77 144 52z"/>
</g>
</svg>
