<?xml version="1.0" standalone="no"?>
<!DOCTYPE svg PUBLIC "-//W3C//DTD SVG 20010904//EN"
 "http://www.w3.org/TR/2001/REC-SVG-20010904/DTD/svg10.dtd">
<svg version="1.0" xmlns="http://www.w3.org/2000/svg"
 width="300.000000pt" height="300.000000pt" viewBox="0 0 300.000000 300.000000"
 preserveAspectRatio="xMidYMid meet">
<metadata>
Created by potrace 1.10, written by Peter Selinger 2001-2011
</metadata>
<g transform="translate(0.000000,300.000000) scale(0.050000,-0.050000)"
fill="#000000" stroke="none">
<path d="M483 5991 c5 -6 199 -11 432 -12 304 -1 425 -8 432 -25 7 -18 10 -17
11 1 2 19 350 25 1635 25 899 0 1638 4 1644 10 5 5 -929 10 -2077 10 -1148 0
-2082 -4 -2077 -9z"/>
<path d="M4896 5985 c69 -4 177 -4 240 0 63 4 6 7 -126 7 -132 0 -183 -3 -114
-7z"/>
<path d="M5323 5990 c5 -5 155 -10 332 -11 l323 -2 7 -113 7 -114 4 125 4 125
-343 0 c-189 0 -339 -4 -334 -10z"/>
<path d="M4772 5913 c-21 -77 -15 -108 14 -71 13 17 35 35 49 40 19 6 15 18
-13 41 -36 31 -39 31 -50 -10z"/>
<path d="M5026 5891 c10 -29 79 -26 89 4 5 16 -10 23 -44 21 -28 -3 -48 -14
-45 -25z"/>
<path d="M4220 5882 c0 -31 121 -49 147 -22 18 19 13 22 -20 11 -24 -7 -49 -3
-56 8 -16 26 -71 28 -71 3z"/>
<path d="M314 5868 c-21 -21 5 -48 47 -48 24 0 34 -10 27 -28 -6 -15 -1 -34
11 -41 14 -9 20 7 17 48 -2 33 -11 61 -19 61 -7 0 -26 5 -41 11 -16 5 -34 4
-42 -3z"/>
<path d="M2020 5758 c0 -36 -5 -39 -30 -18 -23 19 -30 19 -30 1 0 -15 -16 -19
-45 -10 -25 7 -54 15 -65 16 -11 2 -27 12 -35 23 -9 13 -15 11 -15 -4 0 -16
-24 -21 -70 -15 -59 7 -74 1 -92 -37 -11 -26 -77 -77 -144 -114 -68 -38 -155
-89 -192 -114 -37 -25 -84 -46 -105 -46 -25 0 -37 -14 -37 -45 0 -31 -19 -54
-60 -72 -42 -18 -58 -38 -55 -68 4 -37 -33 -71 -109 -100 -8 -3 -19 -41 -24
-85 -12 -94 -84 -250 -115 -250 -13 0 -16 -17 -7 -45 21 -66 47 -343 68 -705
10 -176 33 -369 50 -430 46 -161 166 -474 200 -523 26 -37 26 -48 0 -88 -27
-41 -27 -49 9 -82 21 -20 68 -86 105 -147 37 -60 105 -163 152 -227 47 -65 86
-131 86 -149 0 -17 13 -45 28 -62 16 -18 37 -63 46 -101 12 -46 33 -73 61 -80
23 -6 74 -53 113 -104 38 -50 128 -145 200 -210 123 -111 130 -123 139 -221 6
-58 14 -112 20 -121 6 -9 24 -94 40 -189 l30 -173 -66 -70 c-68 -73 -151 -317
-151 -444 0 -52 -103 -169 -149 -169 -6 0 -126 -65 -266 -144 -140 -78 -331
-183 -425 -233 -93 -49 -174 -93 -180 -98 -5 -5 67 -3 160 4 139 12 177 22
208 58 38 43 38 43 28 1 -9 -35 -2 -42 45 -40 31 1 55 7 55 12 0 6 1 17 4 25
10 29 15 55 19 90 3 31 6 30 21 -5 16 -38 17 -38 19 5 0 25 11 45 22 45 12 0
16 9 9 20 -7 12 2 14 22 6 22 -8 30 -5 21 9 -8 13 24 35 82 56 52 20 106 48
119 64 13 16 32 23 43 17 11 -7 27 -2 35 11 9 14 6 18 -9 9 -14 -9 -18 -3 -11
17 36 94 52 -32 19 -153 -12 -43 -11 -43 18 4 16 28 45 102 63 166 23 78 39
108 51 90 11 -18 16 -13 17 19 0 25 8 45 19 45 10 0 27 38 38 85 14 63 20 72
23 35 l4 -50 16 50 c15 48 16 48 18 5 1 -25 10 -45 19 -45 16 0 74 -108 60
-111 -20 -5 65 -69 90 -69 51 0 93 -23 80 -45 -7 -11 0 -16 15 -11 15 5 38 -5
51 -22 19 -26 21 -22 13 21 -5 29 0 58 11 65 28 18 6 72 -29 72 -15 0 -28 -13
-28 -30 0 -19 -19 -30 -50 -30 -27 0 -50 9 -50 20 0 11 18 20 40 20 22 0 40 9
40 20 0 11 -20 20 -45 21 -67 1 1 37 81 43 34 2 56 12 51 21 -6 10 -37 12 -69
5 -52 -12 -118 21 -118 59 0 20 92 11 115 -12 16 -16 21 -15 17 5 -12 60 -38
98 -65 98 -16 0 -24 9 -17 20 7 11 3 20 -9 20 -11 0 -21 -11 -21 -25 -1 -18
-6 -17 -18 3 -10 16 -14 40 -8 55 6 15 -5 32 -24 40 -26 10 -28 16 -7 29 17
11 19 17 4 18 -57 0 -67 118 -16 193 50 74 60 110 35 134 -17 17 -28 65 -33
143 -1 33 -14 80 -28 104 -35 62 -31 71 20 44 l45 -23 -45 49 c-73 79 -59 137
15 59 33 -34 60 -70 60 -79 0 -23 132 -84 181 -84 21 0 39 -7 39 -16 0 -31
-45 -61 -77 -51 -25 8 -23 2 6 -21 21 -18 50 -32 65 -32 14 0 26 -7 26 -16 0
-9 31 -29 69 -44 38 -15 74 -39 80 -53 5 -15 32 -27 59 -27 27 0 55 -8 61 -18
15 -24 175 16 203 51 25 31 120 37 137 8 7 -10 44 14 84 53 57 57 75 66 90 44
14 -22 17 -19 13 10 -4 26 11 44 51 57 70 24 139 89 112 105 -10 7 -19 2 -19
-11 0 -13 -14 -18 -31 -11 -18 6 -26 3 -19 -8 7 -11 -6 -20 -29 -20 -23 0 -58
-10 -79 -23 -73 -46 -114 -4 -54 56 28 29 52 70 52 92 0 26 10 36 29 28 17 -6
43 1 58 17 16 15 35 22 44 14 8 -8 9 -3 2 10 -8 13 2 33 22 44 29 18 30 24 7
40 -22 14 -18 20 20 25 39 6 47 18 44 62 -3 42 5 55 35 55 22 0 39 10 39 22 0
13 -18 18 -40 12 -22 -6 -41 0 -42 13 -1 13 -4 40 -5 61 -2 21 -16 43 -31 48
-19 6 -22 1 -11 -18 39 -64 -13 -249 -65 -229 -14 5 -25 3 -23 -5 7 -52 -8
-84 -40 -84 -53 0 -103 -63 -116 -148 -13 -76 -87 -109 -87 -38 0 25 -6 28
-23 11 -17 -17 -14 -31 10 -55 49 -49 42 -110 -12 -110 -33 -1 -38 -5 -18 -18
37 -23 1 -43 -71 -41 -31 2 -90 -4 -131 -12 -57 -11 -75 -8 -76 13 -1 16 -10
8 -20 -17 -10 -26 -35 -45 -58 -45 -27 0 -36 9 -28 30 6 16 19 30 29 30 10 0
16 11 13 25 -3 14 5 23 18 21 13 -3 28 7 34 22 7 19 -2 24 -26 18 -20 -5 -43
1 -51 14 -9 14 -1 20 21 16 19 -3 39 6 44 21 8 21 -7 26 -63 19 -39 -4 -72 -1
-72 6 0 21 115 44 140 28 12 -7 31 14 43 49 15 43 28 56 44 44 23 -19 81 22
61 43 -16 15 15 114 35 114 11 0 14 -9 7 -21 -12 -19 42 -14 125 12 43 13 27
-31 -30 -84 -45 -42 -56 -45 -61 -19 -4 18 -16 32 -26 32 -13 0 -13 -12 -1
-34 13 -24 11 -51 -8 -87 -22 -44 -22 -52 0 -52 15 0 23 11 17 25 -6 16 11 32
42 39 30 8 52 28 52 46 0 19 23 50 50 71 28 21 50 52 50 70 -1 28 -3 28 -20 2
-17 -26 -19 -25 -20 5 0 19 7 35 16 35 8 0 17 20 19 45 2 24 14 65 28 91 21
38 20 50 -4 65 -32 19 -68 -67 -49 -117 5 -14 2 -22 -7 -16 -20 12 -84 -60
-68 -76 6 -7 1 -12 -12 -12 -13 0 -23 18 -23 40 0 22 -9 40 -20 40 -11 0 -20
-17 -20 -38 0 -21 -11 -37 -25 -37 -71 3 -98 -7 -89 -32 6 -15 2 -39 -8 -55
-14 -23 -17 -21 -18 7 0 19 -9 35 -19 35 -11 0 -15 -13 -8 -30 6 -17 -10 -52
-36 -80 -54 -57 -77 -63 -77 -20 0 17 -10 30 -22 30 -13 0 -18 -17 -13 -39 11
-40 -19 -61 -87 -61 -22 0 -44 -13 -51 -30 -15 -39 -47 -18 -47 30 0 22 -24
47 -60 63 -37 17 -56 38 -50 54 7 18 0 24 -18 17 -15 -6 -44 1 -64 15 -31 23
-40 22 -60 -5 -20 -28 -25 -27 -36 11 -8 24 -45 62 -83 86 -90 55 -87 66 13
49 l81 -14 -56 87 c-30 48 -58 91 -61 95 -3 5 -26 11 -51 13 -25 2 -42 15 -39
28 3 14 -13 29 -35 35 -22 6 -36 17 -31 26 5 8 -9 39 -32 68 -22 28 -35 52
-27 52 8 0 3 13 -10 29 -13 16 -36 24 -50 18 -37 -14 -131 115 -144 197 -9 55
5 99 71 220 92 170 94 176 52 176 -36 0 -40 53 -5 67 14 5 3 11 -25 13 -27 2
-39 8 -25 13 14 6 25 22 25 37 0 15 18 33 40 40 25 8 40 30 40 60 0 26 9 70
19 99 28 72 5 131 -31 81 -15 -19 -40 -30 -56 -23 -24 9 -27 2 -13 -36 13 -32
10 -58 -9 -85 -15 -22 -31 -61 -34 -88 -11 -76 -35 -101 -83 -86 -40 12 -39
10 6 -27 40 -33 45 -46 26 -70 -14 -16 -18 -35 -11 -43 8 -7 -6 -19 -30 -25
-27 -7 -45 -28 -47 -54 -7 -123 -4 -251 7 -318 8 -41 6 -75 -4 -75 -17 0 -140
305 -140 350 0 47 -55 50 -69 4 -13 -40 -17 -37 -49 31 -19 41 -41 69 -49 62
-7 -8 -13 0 -13 17 0 17 -17 52 -37 78 -20 27 -33 59 -29 72 13 35 -74 342
-126 446 -121 244 -192 955 -112 1120 90 185 227 292 382 296 26 1 71 24 100
51 29 27 72 54 96 62 28 8 40 24 33 42 -8 20 -2 26 19 18 42 -17 115 26 102
59 -7 17 10 32 46 41 30 8 62 25 70 38 11 17 15 16 16 -2 0 -15 -24 -35 -54
-47 -39 -15 -47 -25 -29 -36 33 -20 123 19 123 53 0 14 9 25 20 25 11 0 20 18
20 39 0 27 10 36 30 28 16 -6 25 -19 19 -29 -6 -10 7 -18 29 -18 28 0 37 9 29
30 -6 17 -20 30 -30 30 -11 0 -14 9 -7 20 7 11 21 20 32 20 11 0 15 -8 9 -18
-6 -9 3 -29 19 -42 25 -21 30 -16 32 33 2 32 7 42 12 23 8 -33 116 -76 191
-76 19 0 35 -9 35 -21 0 -12 12 -10 28 5 16 16 20 31 8 38 -11 7 -6 18 12 24
17 7 36 3 43 -8 7 -12 26 -16 41 -10 16 6 28 -2 28 -20 0 -17 9 -25 21 -17 11
7 35 1 51 -13 25 -21 34 -20 47 1 9 14 27 20 39 12 58 -36 98 8 92 103 -6 95
-56 143 -122 118 -15 -6 -28 8 -32 32 -3 23 -24 52 -46 64 -22 12 -45 29 -52
38 -6 9 -36 19 -65 22 -54 6 -100 32 -55 32 13 0 19 9 12 20 -17 27 17 25 45
-3 12 -12 44 -25 71 -28 107 -11 263 -113 264 -172 0 -26 34 -47 107 -69 40
-11 71 -32 68 -45 -3 -12 12 -23 34 -23 21 0 45 -10 53 -23 13 -22 -31 -19
-132 8 -16 5 -23 5 -15 0 30 -17 14 -45 -26 -45 -29 0 -40 -11 -35 -35 9 -48
73 -58 69 -11 -2 26 10 35 47 31 114 -10 170 -24 176 -44 4 -11 24 -21 45 -21
20 0 68 -31 105 -70 37 -38 73 -64 79 -58 17 16 80 -126 70 -156 -5 -14 -28
12 -52 59 -44 86 -103 114 -103 50 -1 -28 -4 -29 -18 -7 -14 22 -31 23 -80 6
-56 -20 -62 -18 -62 17 0 21 14 39 30 39 19 0 30 19 30 52 0 36 -8 49 -28 42
-15 -6 -38 0 -51 13 -18 18 -20 15 -10 -13 13 -33 6 -35 -57 -24 -58 11 -74 7
-92 -26 -24 -45 13 -72 68 -51 17 6 30 2 30 -10 0 -12 21 -45 48 -74 89 -99
112 -129 113 -144 1 -8 16 -23 33 -32 24 -14 25 -21 5 -33 -38 -24 15 -139 74
-161 29 -11 48 -36 50 -64 2 -25 4 -58 5 -73 1 -16 13 -32 27 -37 14 -5 25
-19 25 -32 0 -12 23 -68 50 -123 27 -55 49 -110 49 -122 1 -12 20 -39 43 -60
67 -61 125 -191 128 -288 2 -70 11 -92 39 -97 33 -6 35 4 22 107 -13 100 -7
132 50 273 79 196 77 207 -113 612 -37 80 -68 151 -68 159 0 18 -194 244 -268
313 -34 31 -93 85 -132 120 -38 34 -93 91 -121 124 -74 90 -283 225 -382 248
-48 10 -121 33 -162 50 -40 17 -100 31 -133 31 -33 0 -66 10 -73 22 -8 13 -40
17 -80 9 -72 -13 -149 20 -149 64 0 14 -13 25 -30 25 -17 0 -30 -18 -30 -42z
m225 -154 c28 -24 30 -35 10 -47 -41 -27 -63 -20 -136 43 l-69 61 80 -13 c44
-7 96 -27 115 -44z m-433 -30 c15 -8 21 -28 15 -45 -12 -32 13 -36 111 -16 50
10 58 18 40 40 -19 22 -11 27 37 27 42 0 70 -15 93 -50 33 -51 99 -67 122 -30
17 27 90 -12 90 -48 0 -15 32 -54 71 -88 44 -37 63 -66 49 -74 -12 -7 -34 -3
-50 10 -16 13 -39 17 -51 9 -16 -10 -19 -1 -10 27 16 50 -20 77 -38 29 -13
-33 -15 -33 -35 2 -15 28 -14 42 7 55 15 10 18 19 7 20 -70 10 -106 17 -150
28 -39 11 -43 9 -20 -8 24 -17 18 -22 -30 -23 -56 -1 -57 -3 -15 -20 25 -10
45 -27 45 -38 0 -11 -32 -5 -71 14 -65 31 -68 36 -36 59 19 14 25 26 13 26
-11 0 -31 -12 -44 -27 -13 -17 -44 -23 -77 -17 -48 9 -52 7 -29 -21 23 -28 17
-30 -55 -24 -63 6 -84 0 -100 -29 -11 -21 -43 -43 -70 -50 -66 -16 -66 -52 -1
-52 28 0 50 11 50 25 1 17 7 15 19 -4 13 -20 11 -35 -5 -45 -18 -12 -17 -20 3
-33 38 -25 -7 -51 -53 -32 -55 23 -124 28 -124 8 0 -11 16 -20 35 -21 22 -1
25 -5 9 -11 -14 -6 -36 -2 -50 9 -55 46 -141 37 -154 -16 -11 -47 -13 -48 -28
-10 -16 40 -16 40 -32 0 -8 -23 -41 -54 -73 -70 -99 -51 -209 -164 -185 -192
24 -30 -16 -62 -43 -35 -69 69 256 464 385 468 39 1 105 56 88 73 -8 8 -22 3
-31 -12 -9 -15 -29 -23 -44 -18 -48 17 205 134 293 136 61 2 125 55 85 71 -20
7 -27 26 -19 55 8 31 14 35 20 13 6 -16 22 -36 36 -45z m174 -219 c29 -14 54
-37 54 -51 0 -19 -10 -20 -40 -4 -37 20 -48 13 -42 -25 1 -8 -8 -15 -20 -15
-12 0 -17 11 -12 25 5 14 0 41 -9 60 -22 41 -4 44 69 10z m1374 -626 c0 -14
11 -29 24 -34 36 -12 -1 -55 -48 -55 -34 0 -37 5 -16 30 17 21 18 30 2 30 -12
0 -22 24 -22 52 0 45 5 49 30 28 17 -14 30 -37 30 -51z m-83 -91 c33 -54 9
-80 -29 -29 -15 21 -28 46 -28 55 0 30 30 16 57 -26z m253 -320 c18 -54 5 -64
-40 -31 -20 15 -30 37 -22 50 22 35 48 28 62 -19z m82 -73 c46 -61 2 -166 -48
-115 -6 5 1 10 15 10 25 0 22 29 -9 105 -8 19 -8 35 1 35 8 0 27 -16 41 -35z"/>
<path d="M5986 5600 c0 -71 4 -101 8 -65 5 36 5 94 0 130 -4 36 -8 7 -8 -65z"/>
<path d="M4784 5438 c-28 -44 -13 -50 27 -10 18 19 56 24 118 17 50 -6 91 -2
91 8 0 40 -211 26 -236 -15z"/>
<path d="M5980 5294 c0 -102 -9 -175 -24 -190 -18 -18 -18 -24 -1 -24 16 0 26
-70 30 -225 4 -133 8 -56 11 190 2 228 0 415 -6 415 -5 0 -10 -75 -10 -166z"/>
<path d="M3953 5067 c-27 -28 -11 -41 37 -32 28 5 55 18 61 27 13 21 -78 25
-98 5z"/>
<path d="M4797 5052 c23 -13 81 -19 128 -15 99 10 86 16 -63 29 -90 7 -101 5
-65 -14z"/>
<path d="M107 4895 c6 -58 12 -107 12 -110 6 -35 41 10 41 54 0 32 10 65 21
72 14 8 10 26 -13 51 -56 62 -72 45 -61 -67z"/>
<path d="M2720 4971 c0 -29 99 -149 142 -172 37 -20 38 -18 14 20 -14 22 -37
41 -51 41 -14 0 -25 9 -25 21 0 11 -18 40 -40 64 -22 23 -40 35 -40 26z"/>
<path d="M2240 4809 c0 -17 8 -26 18 -20 10 6 33 5 52 -2 27 -10 28 -16 7 -29
-19 -12 -19 -17 -3 -18 13 0 28 8 34 17 6 10 55 13 108 8 80 -8 100 -3 111 26
12 29 9 31 -17 9 -26 -21 -40 -21 -79 0 -27 14 -62 20 -80 13 -17 -6 -31 -3
-31 8 0 10 -27 19 -60 19 -41 0 -60 -10 -60 -31z"/>
<path d="M2691 4822 c-6 -10 -9 -40 -7 -68 5 -63 56 -48 56 17 0 50 -30 82
-49 51z"/>
<path d="M1940 4760 c-16 -10 -22 -25 -13 -34 20 -20 313 -23 313 -3 0 8 -49
13 -109 12 -59 -1 -121 8 -135 20 -17 14 -38 16 -56 5z"/>
<path d="M5090 4720 c56 -24 125 -24 140 0 8 12 -24 19 -84 19 -72 -1 -86 -6
-56 -19z"/>
<path d="M2332 4645 c-8 -8 -71 -16 -138 -17 -170 -4 -174 -5 -174 -30 0 -14
19 -18 50 -10 28 7 68 4 89 -8 23 -12 43 -13 50 -2 6 11 50 16 96 13 47 -3 73
-1 59 4 -20 7 -20 15 -2 37 23 28 -3 40 -30 13z"/>
<path d="M5978 4575 c-4 -102 6 -446 14 -453 4 -5 8 105 8 245 0 212 -15 358
-22 208z"/>
<path d="M80 4519 c0 -11 9 -19 20 -19 11 0 20 -46 20 -102 l0 -102 38 47 c27
33 33 57 20 81 -10 18 -18 50 -18 70 0 23 -15 39 -40 41 -22 1 -40 -6 -40 -16z"/>
<path d="M1320 4503 c0 -11 11 -25 25 -32 14 -6 5 -8 -20 -3 -33 6 -45 -1 -45
-28 0 -20 -5 -49 -10 -64 -7 -17 3 -27 27 -27 21 0 36 13 35 30 -1 21 13 29
43 25 25 -4 45 3 45 14 0 11 -14 16 -30 9 -22 -8 -29 1 -25 34 3 24 -6 49 -20
53 -14 5 -25 0 -25 -11z"/>
<path d="M2520 4441 c-39 -23 -157 -73 -219 -91 -159 -49 -324 -270 -200 -270
10 0 13 -12 7 -27 -6 -15 6 -34 25 -41 20 -8 30 -8 23 -1 -15 15 55 89 84 89
11 0 30 17 43 38 13 21 36 33 51 28 14 -6 26 1 26 14 0 19 7 19 28 1 23 -18
31 -15 41 16 7 22 39 44 77 53 35 8 78 19 94 24 55 15 340 16 340 1 0 -8 13
-15 30 -15 16 0 28 -7 25 -15 -9 -27 84 -105 126 -105 23 0 36 -8 30 -19 -7
-10 1 -26 16 -35 39 -23 133 -178 134 -221 0 -33 1 -33 21 0 11 19 38 35 60
35 22 0 35 9 29 19 -7 11 -27 14 -44 7 -25 -10 -29 -3 -17 34 12 38 9 44 -19
33 -25 -10 -31 -4 -22 22 25 80 -379 418 -449 375 -9 -6 -20 -1 -23 10 -4 12
-39 25 -77 30 -39 5 -101 14 -140 19 -38 6 -83 2 -100 -8z"/>
<path d="M1382 4327 c-23 -16 -37 -39 -31 -49 8 -13 21 -13 36 -1 23 19 34 23
73 23 30 0 24 34 -8 46 -15 6 -47 -2 -70 -19z"/>
<path d="M1153 4291 c-20 -16 -31 -38 -24 -50 8 -12 -1 -27 -18 -33 -34 -13
-43 -68 -11 -68 11 0 20 8 20 19 0 24 100 13 117 -13 20 -32 143 -7 143 30 0
17 -6 25 -13 18 -7 -8 -26 -3 -42 10 -22 18 -32 17 -44 -3 -21 -34 -64 -8 -60
36 9 89 -6 101 -68 54z"/>
<path d="M135 4114 c5 -68 17 -139 27 -158 10 -18 18 -56 18 -85 0 -56 23 -66
57 -25 27 33 14 111 -24 141 -39 32 -61 187 -28 198 16 5 9 17 -18 31 -41 22
-42 20 -32 -102z"/>
<path d="M2840 4170 c0 -22 -23 -30 -86 -30 -47 0 -97 -11 -111 -25 -21 -20
-31 -18 -52 11 -30 40 -169 -36 -248 -137 -21 -27 -48 -49 -60 -49 -28 0 -66
-71 -47 -89 8 -8 -11 -8 -41 0 -30 7 -55 6 -54 -4 1 -29 52 -87 76 -87 13 0
23 -10 23 -21 0 -12 19 -17 45 -11 25 7 34 6 20 0 -14 -6 -20 -20 -14 -30 19
-30 49 -20 49 17 1 27 4 29 18 8 14 -22 26 -22 62 -3 31 16 49 17 58 3 8 -12
49 -16 102 -9 67 10 79 16 49 27 -44 17 -54 12 161 80 153 49 246 99 184 99
-19 0 -91 -19 -160 -42 -68 -24 -178 -46 -244 -49 -66 -3 -120 -7 -120 -9 0
-1 -20 -7 -45 -11 -79 -15 -45 60 36 81 35 8 57 32 70 76 20 68 109 106 109
47 0 -16 11 -34 25 -39 14 -6 -4 -17 -40 -25 -77 -17 -87 -46 -15 -42 27 2 50
10 50 18 0 8 17 15 38 15 21 0 42 12 48 26 25 66 262 94 381 44 86 -36 100
-37 82 -8 -8 12 -47 36 -86 53 -61 25 -67 33 -36 44 30 10 21 18 -42 37 -97
29 -131 30 -115 4 7 -11 -1 -20 -17 -20 -19 0 -26 13 -19 40 6 22 1 40 -12 40
-12 0 -22 -13 -22 -30z m-270 -70 c7 -11 -2 -20 -19 -20 -17 0 -47 -18 -66
-40 -18 -22 -43 -40 -53 -40 -11 0 6 27 38 60 61 64 80 72 100 40z"/>
<path d="M3853 4080 c-10 -51 7 -87 109 -233 150 -215 212 -387 138 -387 -11
0 -21 -38 -22 -85 -2 -47 -7 -69 -12 -50 -9 37 -66 50 -66 15 0 -35 -40 -22
-93 31 -62 62 -76 53 -55 -35 8 -36 13 -77 11 -91 -6 -30 26 -32 75 -6 19 10
59 22 88 26 29 4 59 13 67 21 18 19 47 18 47 -1 -2 -40 -164 -128 -212 -116
-47 12 -51 8 -45 -49 4 -34 -2 -68 -14 -76 -11 -8 -30 -36 -43 -64 -13 -27
-24 -39 -25 -25 0 14 -11 25 -24 25 -12 0 -33 14 -46 32 -21 29 -25 29 -50 0
-22 -27 -21 -32 8 -32 19 0 49 -15 66 -33 31 -30 30 -31 -9 -19 -28 9 -45 3
-54 -20 -10 -25 -4 -30 26 -23 32 9 36 3 24 -42 -17 -62 -7 -123 19 -123 41 0
20 -163 -26 -201 -25 -21 -34 -38 -20 -38 14 -1 25 -14 25 -29 0 -26 36 -107
113 -256 16 -30 30 -104 31 -166 2 -64 14 -120 30 -133 14 -12 26 -39 26 -61
0 -21 9 -56 21 -77 12 -24 13 -39 1 -39 -10 0 -23 11 -29 25 -7 19 -10 19 -11
-1 -1 -15 11 -40 27 -56 16 -16 27 -40 23 -54 -3 -13 -2 -17 3 -9 17 31 42 13
35 -25 -9 -47 2 -50 41 -12 22 22 23 31 4 39 -15 6 -12 10 9 11 43 2 88 -43
137 -140 l40 -78 -58 0 c-90 0 -244 -171 -197 -219 19 -18 16 -20 -10 -11 -26
10 -31 4 -22 -28 7 -28 1 -42 -17 -42 -36 0 -101 -75 -78 -89 9 -6 7 -33 -6
-59 -12 -27 -29 -44 -37 -39 -9 5 -11 -4 -4 -20 16 -43 74 -27 103 29 13 26
25 36 25 21 0 -31 118 127 179 240 22 40 53 86 68 101 16 16 63 94 104 173 41
79 78 140 82 137 15 -15 21 -133 6 -124 -37 24 -37 -62 0 -113 28 -38 34 -59
18 -69 -15 -9 -18 -5 -7 12 11 17 8 21 -7 12 -17 -10 -17 -25 -2 -54 11 -21
15 -49 7 -62 -9 -13 -5 -17 9 -8 21 13 32 -11 25 -53 -1 -8 9 -13 23 -10 14 3
24 -11 22 -30 -1 -19 6 -30 15 -24 10 6 19 2 21 -10 1 -11 4 -30 7 -41 3 -11
6 -26 8 -33 1 -7 19 3 41 22 43 39 46 105 6 120 -20 8 -21 1 -3 -32 17 -33 17
-38 -3 -26 -19 11 -22 6 -13 -19 8 -21 6 -29 -7 -21 -11 7 -15 32 -9 56 11 35
9 38 -11 13 -19 -26 -21 -25 -12 5 7 21 2 33 -13 30 -13 -3 -23 11 -21 30 1
19 -5 30 -14 24 -9 -5 -22 -1 -29 11 -11 18 14 29 54 23 8 -2 9 12 2 29 -9 24
-15 25 -27 7 -9 -15 -14 -4 -12 28 2 44 7 48 25 24 12 -17 27 -26 32 -20 14
13 4 -71 -13 -113 -8 -20 -2 -31 18 -31 17 0 31 9 31 21 0 12 10 9 22 -8 17
-24 20 -21 12 15 -6 25 -2 45 8 45 10 0 18 -18 18 -40 0 -22 9 -40 20 -40 11
0 20 11 20 25 1 17 7 15 20 -5 22 -35 19 -280 -4 -280 -9 0 -16 -21 -16 -47 0
-25 -6 -52 -13 -60 -8 -7 -16 -33 -19 -58 -13 -115 -188 -382 -188 -288 0 18
-7 33 -15 33 -8 0 -26 25 -40 56 -28 63 -229 277 -305 326 -52 33 -180 17
-180 -22 0 -10 -26 -32 -58 -49 -31 -16 -63 -44 -69 -62 -11 -26 -3 -25 42 6
96 67 99 67 97 7 -1 -37 -11 -53 -27 -47 -14 5 -25 -2 -25 -15 0 -19 -9 -18
-34 3 -18 15 -28 17 -20 4 8 -13 -5 -28 -31 -37 -36 -11 -38 -16 -12 -23 28
-8 25 -18 -20 -63 -29 -29 -59 -51 -67 -49 -8 3 -9 -9 -3 -25 17 -45 50 -37
132 31 41 34 82 57 91 52 8 -6 17 7 19 29 1 23 -6 34 -19 25 -13 -8 -16 -4 -8
9 14 24 123 20 147 -5 8 -7 1 -22 -16 -32 -20 -13 -21 -18 -4 -19 14 0 43 11
64 24 51 32 153 -16 120 -55 -15 -18 -13 -28 5 -34 20 -6 18 -16 -7 -40 -38
-38 -117 -25 -117 20 0 22 -7 24 -26 9 -16 -14 -36 -15 -55 -3 -16 10 -38 18
-49 19 -11 0 12 -20 50 -43 l70 -43 -57 -16 c-32 -9 -71 -34 -87 -57 -41 -59
-76 -29 -37 31 18 26 24 48 14 48 -19 0 -57 -39 -63 -65 -18 -74 -27 -95 -44
-95 -10 0 -13 -9 -6 -20 7 -11 -12 -21 -44 -21 -40 -1 -47 -6 -22 -15 29 -12
21 -27 -48 -94 -45 -44 -76 -69 -68 -55 9 16 2 25 -18 25 -18 0 -27 9 -20 20
7 11 2 20 -11 20 -13 0 -18 -14 -11 -32 7 -17 12 -44 12 -60 0 -36 208 -39
252 -3 84 71 91 84 84 147 -4 36 -1 61 8 55 9 -5 16 -31 16 -58 0 -57 30 -64
58 -14 10 19 27 32 36 29 24 -9 166 59 166 80 0 10 9 13 20 6 11 -7 19 -46 18
-86 l-3 -74 -15 60 -15 60 -5 -60 c-4 -59 -4 -59 -20 -10 -15 46 -16 45 -20
-20 -4 -65 -5 -66 -20 -20 l-16 50 -3 -50 c-4 -46 -5 -47 -21 -10 -15 35 -18
32 -21 -20 -3 -59 -3 -59 -19 -10 -16 49 -16 49 -20 -10 l-5 -60 -15 60 -15
60 -3 -65 c-2 -72 19 -80 112 -42 31 13 63 22 71 20 8 -2 15 5 15 16 0 10 18
15 40 11 22 -4 51 4 65 18 13 14 40 22 59 17 25 -7 36 2 36 28 1 31 4 32 20 7
24 -37 27 21 6 100 l-14 50 -14 -50 c-13 -47 -14 -46 -16 13 -1 39 9 67 28 74
22 9 31 -3 32 -43 l3 -54 16 60 c13 43 15 27 9 -60 -5 -66 -4 -109 2 -95 6 14
20 20 30 14 10 -6 19 14 20 45 2 50 3 51 15 12 28 -94 69 -19 55 98 -12 96 33
219 71 194 4 -2 27 3 52 10 47 15 64 56 20 47 -15 -3 -26 19 -29 55 l-3 60 16
-60 16 -60 5 70 4 70 16 -66 c23 -99 38 -99 29 -1 -8 80 -7 82 9 21 26 -100
38 -97 30 10 -6 91 -6 92 10 21 16 -76 42 -123 42 -77 0 13 10 18 23 10 16
-10 20 2 13 39 -13 65 -1 68 25 8 16 -36 18 -29 10 35 -6 44 -12 121 -14 170
-3 84 -5 82 -16 -30 l-12 -120 -22 110 c-15 74 -23 91 -24 50 -1 -33 6 -98 15
-145 9 -47 10 -90 2 -95 -8 -5 -22 56 -31 135 -10 83 -20 121 -24 90 -8 -57
-34 -73 -52 -30 -5 14 -11 3 -13 -25 -2 -47 -3 -48 -19 -8 -10 23 -10 72 -1
110 14 59 16 61 20 18 3 -32 8 -38 13 -17 5 18 29 39 53 47 40 12 37 15 -26
34 -38 12 -59 25 -45 30 14 5 21 16 16 24 -5 9 4 15 20 15 23 0 24 -5 4 -30
-22 -26 -16 -28 45 -16 42 8 59 6 43 -5 -32 -20 -7 -39 42 -31 19 3 35 -3 35
-14 0 -11 8 -14 19 -8 10 7 27 -4 38 -24 11 -19 27 -35 36 -35 19 0 19 -145 0
-164 -7 -7 -13 25 -13 71 0 48 -9 83 -22 83 -14 0 -18 -18 -11 -45 7 -25 13
-71 13 -103 0 -57 1 -57 40 -22 22 20 39 46 38 58 -10 81 10 109 22 32 l14
-90 4 90 c4 70 9 81 22 50 9 -22 18 -30 19 -17 1 28 119 47 134 22 7 -12 17
-11 25 1 6 11 59 26 117 33 l105 14 2 -97 c1 -53 9 -141 18 -196 13 -78 15
-55 10 100 l-7 200 27 -180 27 -180 -6 180 c-4 99 -2 153 4 120 l11 -60 15 50
c15 49 15 49 17 4 1 -26 11 -41 22 -34 12 7 16 20 10 30 -5 9 8 12 30 6 34 -9
40 -27 40 -120 0 -98 3 -106 31 -78 16 17 41 26 55 21 18 -7 23 13 17 74 -7
79 -5 82 40 70 26 -7 54 -13 62 -13 8 0 15 -8 15 -18 0 -23 -66 -17 -85 8 -8
11 -15 -4 -15 -34 0 -29 9 -59 20 -66 11 -7 20 4 20 24 0 20 7 27 15 16 28
-38 65 -30 67 15 1 25 4 73 6 108 5 68 -38 86 -209 87 -38 0 -119 14 -180 30
-359 99 -708 170 -838 170 -45 0 -81 10 -81 22 0 12 -31 59 -70 106 -38 47
-83 118 -99 158 -59 141 -178 241 -265 224 -42 -8 -88 -16 -103 -17 -25 -3
-98 228 -132 416 -76 419 -89 529 -90 737 -1 207 3 236 34 246 186 55 232 138
230 410 -4 370 -279 883 -332 618z m1101 -3043 c31 -13 61 -25 66 -26 6 -1 28
-12 50 -23 22 -11 100 -20 174 -19 156 1 155 -20 -2 -37 -72 -8 -118 -4 -138
13 -17 14 -34 22 -38 19 -9 -8 -186 76 -186 88 0 13 13 10 74 -15z m-764 -657
c-6 -9 1 -21 15 -27 14 -5 7 -11 -16 -11 -23 -1 -52 -13 -66 -27 -20 -20 -24
-19 -18 5 4 17 -2 10 -13 -14 -11 -26 -45 -50 -81 -58 -33 -7 -69 -23 -78 -36
-10 -12 -10 -5 -2 18 8 22 15 56 16 76 2 37 76 67 112 45 12 -8 16 -1 9 16 -8
21 5 32 45 37 66 9 92 0 77 -24z m347 -110 c0 -51 -2 -54 -17 -20 -9 22 -17
67 -17 100 0 51 2 54 17 20 9 -22 17 -67 17 -100z m-219 -5 c-3 -75 -3 -75
-18 -15 l-15 60 -4 -70 c-3 -57 -7 -63 -20 -30 -15 37 -17 37 -26 -10 -7 -38
-10 -31 -12 26 -3 71 16 93 92 113 3 0 4 -33 3 -74z"/>
<path d="M1788 4047 c-10 -39 -25 -43 -136 -43 -69 1 -145 -10 -170 -23 -25
-13 -58 -19 -74 -13 -15 6 -28 1 -28 -10 0 -11 -9 -15 -19 -8 -103 63 -272
-221 -250 -423 16 -150 22 -151 49 -7 27 141 129 235 309 282 373 97 353 87
362 171 9 76 -25 135 -43 74z"/>
<path d="M5161 4030 c0 -41 54 -90 86 -78 18 7 27 21 21 31 -7 11 -24 15 -39
9 -16 -6 -37 5 -48 24 -11 19 -20 25 -20 14z"/>
<path d="M4369 3999 c-7 -13 -30 -18 -51 -13 -21 6 -43 2 -49 -8 -6 -10 20
-18 59 -18 69 0 110 27 74 49 -11 6 -25 2 -33 -10z"/>
<path d="M1944 3876 c-32 -32 -30 -76 3 -76 34 0 97 69 80 87 -21 20 -56 16
-83 -11z"/>
<path d="M3770 3834 c-20 -47 21 -135 67 -147 63 -17 112 -123 83 -178 -26
-48 -16 -109 19 -109 11 0 29 18 41 40 12 22 35 40 51 40 37 0 37 66 1 137
-27 52 -55 71 -178 121 -31 12 -52 29 -48 37 5 8 2 33 -6 55 -15 38 -17 38
-30 4z"/>
<path d="M5987 3720 c0 -82 3 -116 8 -75 4 41 4 109 0 150 -5 41 -8 8 -8 -75z"/>
<path d="M240 3783 c0 -10 28 -24 62 -30 96 -20 113 -14 58 17 -56 32 -120 39
-120 13z"/>
<path d="M1740 3769 c-27 -15 -77 -33 -110 -40 -53 -12 -55 -15 -20 -29 36
-14 33 -17 -20 -29 -109 -26 -171 -56 -234 -114 -76 -72 -97 -61 -27 14 56 61
60 69 31 69 -11 0 -47 -37 -80 -83 -65 -89 -81 -197 -30 -197 17 0 31 -11 31
-25 1 -14 9 -6 19 18 12 30 52 53 129 76 61 18 111 41 111 51 0 10 27 33 61
51 46 23 58 40 49 70 -15 47 33 54 70 9 19 -22 33 -24 65 -8 39 22 39 21 2
-29 -20 -29 -48 -52 -61 -52 -31 -1 -64 -63 -52 -96 7 -19 -3 -21 -43 -5 -40
15 -55 13 -63 -8 -6 -16 -38 -39 -70 -53 -66 -27 -110 -89 -78 -109 11 -7 26
2 32 19 7 17 27 31 45 32 18 0 50 13 72 30 21 16 48 29 60 28 11 0 -1 -13 -29
-29 -49 -28 -49 -29 -5 -29 27 -1 82 37 143 99 55 55 108 100 118 100 24 0 44
70 43 150 0 63 -44 139 -66 116 -7 -7 -13 -2 -13 11 0 29 -16 27 -80 -8z
m-255 -248 c10 -38 -18 -61 -77 -61 -34 0 -37 43 -4 76 35 35 70 29 81 -15z"/>
<path d="M3172 3744 c-20 -33 3 -64 49 -64 22 0 39 -7 39 -17 0 -9 20 -14 45
-11 25 2 52 5 61 6 9 1 10 12 3 23 -7 12 -25 17 -40 11 -15 -6 -33 -2 -40 9
-6 10 -28 19 -49 19 -20 0 -40 11 -45 24 -6 19 -11 19 -23 0z"/>
<path d="M8 3628 c8 -32 34 -75 58 -96 l44 -37 -45 14 c-44 14 -45 11 -43
-163 2 -133 6 -158 17 -101 8 41 31 93 51 115 28 31 31 45 12 68 -20 24 -18
27 12 20 20 -4 57 8 83 29 l48 37 -49 48 c-41 41 -90 71 -184 115 -10 5 -12
-18 -4 -49z"/>
<path d="M2240 3570 c0 -34 9 -50 25 -45 14 5 25 25 25 45 0 20 -11 40 -25 45
-16 5 -25 -11 -25 -45z"/>
<path d="M2517 3545 c-24 -60 -32 -64 -91 -53 -52 10 -66 6 -66 -20 0 -34 1
-34 78 -42 57 -6 140 67 102 90 -19 12 -19 17 1 24 14 4 20 21 14 37 -8 20
-20 8 -38 -36z"/>
<path d="M3407 3575 c7 -19 4 -35 -6 -35 -9 0 -7 -22 6 -48 12 -27 27 -48 33
-48 5 0 23 0 38 -2 33 -2 10 -32 -25 -32 -12 0 -23 -13 -23 -30 0 -16 16 -30
36 -30 19 0 43 -12 51 -26 42 -67 59 26 25 136 -21 69 -39 101 -49 85 -8 -14
-29 -25 -45 -25 -17 0 -26 7 -20 16 5 9 0 29 -11 45 -17 24 -19 23 -10 -6z"/>
<path d="M4860 3574 c0 -40 -66 -94 -115 -94 -24 0 -48 -9 -55 -20 -19 -30 45
-24 120 11 65 31 103 98 68 120 -10 6 -18 -1 -18 -17z"/>
<path d="M5595 3566 c-77 -12 -69 -40 14 -50 53 -6 71 0 78 28 5 20 -1 35 -14
33 -13 -2 -48 -7 -78 -11z"/>
<path d="M640 3530 c0 -33 35 -39 77 -12 21 13 20 19 -7 29 -52 20 -70 16 -70
-17z"/>
<path d="M2580 3479 c0 -12 38 -38 85 -59 47 -21 111 -66 142 -100 32 -34 63
-57 69 -51 6 6 25 -1 42 -16 18 -15 61 -33 97 -40 36 -7 77 -21 90 -32 148
-119 139 -103 148 -269 6 -101 1 -166 -15 -184 -17 -21 -17 -28 2 -28 16 0 21
-18 15 -50 -12 -65 20 -65 37 0 14 58 48 47 48 -15 0 -34 5 -38 24 -19 19 19
20 34 1 63 -13 21 -20 56 -15 79 4 23 -1 46 -11 53 -31 19 -22 49 14 49 30 0
30 3 3 35 -31 35 -27 84 9 107 30 20 -87 198 -130 198 -10 0 -42 18 -70 40
-28 22 -66 40 -86 40 -19 0 -40 14 -46 30 -7 17 -26 30 -44 30 -23 0 -29 12
-21 45 7 25 6 34 0 20 -18 -41 -128 -15 -168 39 -10 12 -165 54 -205 56 -8 0
-15 -10 -15 -21z"/>
<path d="M3185 3473 c-48 -24 -60 -53 -22 -53 149 0 303 -292 328 -620 7 -93
22 -179 33 -190 14 -13 16 -5 7 25 -8 27 -5 45 8 45 11 0 21 28 21 61 0 34 -8
56 -18 50 -10 -6 -16 12 -15 39 2 28 10 50 18 50 8 0 15 14 15 30 0 17 -9 30
-20 30 -29 0 -25 55 5 66 20 7 20 14 0 36 -14 14 -25 43 -25 63 0 23 -9 32
-23 23 -16 -10 -20 -4 -11 19 19 50 -25 132 -121 226 -47 46 -85 93 -85 105 0
27 -35 25 -95 -5z"/>
<path d="M2606 3359 c15 -106 -21 -142 -130 -127 -95 13 -212 -54 -193 -111 7
-20 16 -19 42 6 18 19 38 25 44 15 7 -11 39 -11 82 1 39 10 87 14 107 8 81
-26 134 157 69 239 -30 38 -31 37 -21 -31z"/>
<path d="M2014 3365 c-31 -7 -28 -18 25 -91 63 -84 78 -127 38 -102 -13 8 -18
5 -10 -6 17 -29 90 -46 103 -26 6 10 2 23 -10 30 -42 26 -18 50 50 50 39 0 70
8 70 17 0 10 -42 14 -92 11 -83 -6 -91 -3 -82 31 12 47 -42 97 -92 86z"/>
<path d="M5830 3340 c-29 -46 -31 -119 -4 -109 15 6 27 37 27 70 0 64 -4 70
-23 39z"/>
<path d="M4720 3302 c0 -10 -22 -39 -50 -65 -60 -57 -66 -90 -8 -50 48 34 105
133 77 133 -11 0 -19 -8 -19 -18z"/>
<path d="M2627 3106 c-11 -46 4 -86 33 -86 9 0 20 20 24 45 7 52 96 78 96 29
0 -17 20 -31 45 -32 25 -1 92 -5 150 -8 72 -4 105 1 105 18 0 14 -16 20 -37
15 -20 -6 -51 4 -68 21 -23 23 -34 25 -40 7 -6 -17 -23 -14 -62 11 -79 52
-231 40 -246 -20z"/>
<path d="M3600 3130 c-20 -24 -20 -36 0 -60 30 -36 69 -40 47 -5 -9 14 -13 41
-10 60 7 43 -4 44 -37 5z"/>
<path d="M4728 3117 c-12 -19 9 -22 120 -17 43 2 84 -7 92 -21 11 -17 25 -18
53 -2 35 20 34 22 -8 22 -25 1 -45 10 -45 21 0 24 -197 22 -212 -3z"/>
<path d="M1975 3078 c-35 -20 -50 -118 -18 -118 32 0 143 63 143 81 0 42 -78
65 -125 37z"/>
<path d="M2316 3057 c-20 -13 -20 -16 -1 -17 14 0 25 -15 25 -33 0 -19 -6 -28
-13 -21 -7 8 -23 1 -35 -14 -28 -34 -167 -56 -184 -29 -7 11 -25 2 -41 -22
-16 -22 -24 -50 -17 -61 6 -10 3 -36 -8 -57 -31 -57 -4 -67 59 -22 30 21 73
39 95 39 21 0 49 12 62 27 12 15 58 33 101 38 43 6 98 29 123 52 24 23 52 37
61 31 9 -6 17 1 17 16 1 19 5 18 19 -3 26 -41 39 -21 28 39 -10 52 -224 80
-291 37z"/>
<path d="M1339 3025 c-1 -8 -6 -37 -11 -65 -7 -39 -4 -44 15 -25 14 14 42 25
63 25 21 0 34 11 29 25 -5 14 -25 22 -44 19 -21 -4 -30 2 -22 15 7 11 4 21 -8
21 -11 0 -22 -7 -22 -15z"/>
<path d="M5188 3014 c-31 -17 -39 -35 -29 -63 13 -34 17 -35 33 -8 10 17 45
46 78 63 59 32 59 32 10 32 -27 1 -69 -10 -92 -24z"/>
<path d="M4373 2995 c-13 -8 15 -15 62 -15 47 0 85 9 85 19 0 22 -111 19 -147
-4z"/>
<path d="M3066 2952 c-11 -21 -61 -33 -168 -39 -103 -6 -180 -24 -239 -54 -58
-29 -90 -36 -95 -21 -5 14 -25 8 -57 -17 -27 -21 -61 -34 -75 -29 -14 5 -37
-4 -51 -21 -14 -17 -47 -31 -72 -31 -64 0 -109 -20 -109 -48 0 -14 -31 -37
-70 -52 -38 -15 -70 -35 -70 -44 0 -9 -13 -16 -29 -16 -16 0 -39 -18 -51 -40
-14 -26 -42 -40 -79 -40 -32 0 -63 -11 -69 -25 -7 -14 -8 -1 -2 28 6 33 0 57
-15 63 -14 5 -1 19 30 31 30 12 55 35 55 51 0 16 5 42 11 58 6 16 -2 34 -18
40 -50 19 -159 -166 -122 -207 16 -18 35 -76 42 -130 12 -85 16 -92 33 -53 27
59 55 56 124 -16 43 -45 63 -54 83 -37 21 17 27 12 27 -21 0 -42 129 -60 160
-22 6 7 42 21 80 32 39 11 70 32 70 47 0 32 143 86 190 71 19 -6 49 7 69 29
19 21 63 45 98 52 35 8 69 23 75 34 7 10 43 26 80 34 38 8 66 25 63 38 -3 13
7 23 23 23 15 0 32 23 37 50 5 28 2 50 -8 50 -9 0 -17 9 -17 20 0 11 11 18 25
15 13 -3 39 38 56 90 18 52 39 88 48 80 9 -8 12 -2 7 14 -12 41 -50 48 -70 13z
m-102 -145 c-10 -18 -14 -50 -9 -71 16 -60 -101 -164 -165 -148 -27 7 -50 4
-50 -6 0 -10 -65 -39 -145 -63 -80 -25 -149 -51 -155 -57 -22 -29 -178 -86
-198 -73 -12 7 -22 0 -22 -18 0 -34 -50 -43 -69 -12 -7 11 -25 14 -40 9 -16
-6 -38 7 -50 30 -24 46 -3 56 35 18 13 -13 24 -15 24 -4 0 11 -10 30 -22 42
-28 28 -4 106 33 106 16 0 29 -7 29 -16 0 -9 11 -32 25 -51 22 -30 25 -29 25
17 0 27 -7 50 -16 50 -9 0 -11 9 -4 20 22 35 50 22 53 -25 l2 -45 9 46 c13 66
102 104 135 58 33 -44 51 -43 51 4 0 69 55 94 121 54 57 -33 59 -33 59 6 0 60
33 68 79 19 l41 -45 0 43 c0 23 -11 46 -25 51 -15 6 -4 18 25 29 59 23 100 12
100 -27 0 -15 10 -28 21 -28 12 0 16 17 10 38 -11 34 20 58 105 80 3 1 -2 -13
-12 -31z"/>
<path d="M523 2906 c21 -25 117 -29 117 -4 0 8 -31 17 -69 22 -54 6 -64 2 -48
-18z"/>
<path d="M4750 2880 c7 -11 35 -14 63 -7 34 8 57 3 69 -15 14 -22 17 -21 18 7
0 28 -17 35 -81 35 -49 0 -76 -8 -69 -20z"/>
<path d="M5959 2827 c-46 -13 -88 -87 -49 -87 16 0 30 14 30 30 0 17 14 30 30
30 17 0 30 9 30 20 0 11 -2 19 -5 18 -3 -2 -19 -6 -36 -11z"/>
<path d="M4240 2695 c0 -15 29 -26 70 -29 78 -4 94 23 25 41 -69 19 -95 15
-95 -12z"/>
<path d="M5340 2697 c0 -9 23 -17 50 -17 28 0 55 0 60 0 44 0 -4 30 -50 32
-33 1 -60 -6 -60 -15z"/>
<path d="M3200 2590 c0 -85 3 -90 55 -89 51 1 52 3 12 19 -34 14 -42 33 -40
89 2 39 -3 71 -12 71 -8 0 -15 -40 -15 -90z"/>
<path d="M5115 2630 c-59 -52 -69 -73 -31 -65 26 5 116 86 116 104 0 23 -32 8
-85 -39z"/>
<path d="M3576 2650 c-7 -11 0 -43 15 -70 15 -28 28 -38 28 -23 1 16 14 22 31
16 17 -7 38 5 50 28 23 42 -25 60 -50 19 -19 -31 -46 -24 -54 15 -4 19 -13 26
-20 15z"/>
<path d="M4524 2616 c-33 -33 -30 -56 6 -56 17 0 30 4 30 8 0 5 5 23 12 40 14
38 -14 42 -48 8z"/>
<path d="M5315 2603 c-21 -26 -20 -28 9 -18 19 7 40 5 46 -5 13 -20 70 -4 70
20 0 31 -100 34 -125 3z"/>
<path d="M5725 2605 c19 -4 35 -16 35 -26 0 -11 25 -18 55 -18 48 2 50 4 15
18 -40 16 -40 16 0 25 22 6 0 10 -50 10 -49 -1 -74 -5 -55 -9z"/>
<path d="M5550 2580 c-7 -11 -37 -20 -66 -20 -42 -1 -47 -5 -24 -20 38 -25
126 -26 111 -2 -6 10 0 22 13 27 17 5 18 11 1 22 -12 7 -28 5 -35 -7z"/>
<path d="M5080 2497 c0 -10 36 -17 80 -17 104 0 104 30 0 32 -44 0 -80 -6 -80
-15z"/>
<path d="M780 2481 c-43 -13 -45 -18 -15 -30 41 -18 95 -1 95 28 0 23 -8 24
-80 2z"/>
<path d="M2830 2435 c-43 -25 -73 -47 -131 -100 -22 -19 -46 -36 -54 -38 -41
-7 -64 -23 -54 -39 20 -32 70 -19 140 34 56 43 75 48 99 28 36 -30 57 8 46 87
-5 44 -11 48 -46 28z"/>
<path d="M5858 2408 c-14 -17 -6 -23 31 -21 28 2 51 9 51 17 0 7 16 17 35 23
19 5 5 8 -31 7 -37 -2 -75 -13 -86 -26z"/>
<path d="M3120 2399 c-25 -17 -21 -27 25 -65 30 -25 55 -59 55 -75 1 -24 4
-24 18 -1 10 15 28 21 41 13 17 -11 17 -22 1 -41 -23 -28 42 -90 94 -90 41 0
30 34 -15 46 -31 8 -38 22 -30 57 16 66 -8 93 -89 100 -54 5 -69 15 -64 42 7
40 4 41 -36 14z"/>
<path d="M3620 2383 c-48 -53 -23 -121 45 -123 9 0 10 23 3 50 -7 29 -2 63 12
80 36 44 -21 37 -60 -7z"/>
<path d="M5651 2341 c-7 -11 -42 -22 -77 -23 -35 0 -53 -6 -39 -11 32 -13 33
-67 2 -67 -13 0 -18 -6 -10 -14 7 -7 31 6 53 29 22 24 55 52 75 62 19 11 29
26 22 33 -7 7 -19 3 -26 -9z"/>
<path d="M4251 2284 c-36 -35 -8 -62 44 -42 30 11 84 15 120 8 40 -7 65 -4 65
9 0 24 0 24 -124 31 -52 3 -99 0 -105 -6z"/>
<path d="M944 2214 c36 -37 116 -46 116 -14 0 11 -17 20 -38 20 -21 0 -55 6
-75 14 -35 13 -35 12 -3 -20z"/>
<path d="M3640 2222 c0 -39 25 -81 42 -71 30 19 20 89 -12 89 -16 0 -30 -8
-30 -18z"/>
<path d="M2826 2194 c-21 -32 -107 -80 -121 -66 -26 26 -88 -31 -64 -59 38
-46 5 -33 -40 15 l-41 44 0 -60 c0 -49 -9 -60 -50 -63 -42 -4 -50 4 -50 50 -1
99 -27 117 -103 68 l-67 -42 65 -1 c69 0 80 -16 40 -59 -25 -26 3 -53 39 -37
8 3 26 -30 39 -74 21 -69 24 -73 25 -25 2 57 31 74 49 30 6 -14 11 -10 11 11
2 26 15 35 47 32 25 -3 77 11 115 32 39 21 79 39 90 39 11 1 17 30 13 66 -5
55 1 65 35 65 48 0 56 30 13 47 -17 6 -37 0 -45 -13z"/>
<path d="M2989 2201 c7 -11 24 -15 39 -9 15 6 43 -6 63 -26 35 -35 36 -35 23
1 -8 20 -14 40 -14 45 0 4 -28 8 -61 8 -34 0 -56 -9 -50 -19z"/>
<path d="M4685 2090 c-37 -41 -31 -79 6 -41 18 17 40 31 50 31 11 0 19 9 19
20 0 29 -46 23 -75 -10z"/>
<path d="M5615 2085 c-42 -4 -71 -16 -64 -26 18 -30 101 -22 129 11 14 17 22
28 17 27 -4 -2 -41 -7 -82 -12z"/>
<path d="M3280 2002 c0 -38 -15 -70 -43 -90 -39 -27 -40 -32 -10 -62 29 -29
34 -26 62 42 36 84 40 140 11 158 -12 7 -20 -13 -20 -48z"/>
<path d="M2880 2012 c0 -26 79 -60 97 -41 6 5 -1 9 -14 9 -12 0 -23 14 -23 30
0 17 -13 30 -30 30 -16 0 -30 -12 -30 -28z"/>
<path d="M2280 1911 c0 -27 49 -111 65 -111 10 0 13 11 7 25 -7 14 -18 41 -24
60 -11 31 -48 51 -48 26z"/>
<path d="M5900 1872 c0 -15 23 -32 50 -37 39 -7 50 -1 50 28 0 26 -15 37 -50
37 -29 0 -50 -11 -50 -28z"/>
<path d="M500 1839 c0 -11 -15 -18 -33 -15 -18 3 -37 -5 -42 -19 -5 -16 12
-25 51 -25 50 0 59 7 50 40 -11 43 -26 54 -26 19z"/>
<path d="M3570 1771 c-71 -23 -74 -27 -30 -33 45 -7 50 -18 54 -106 7 -133 26
-144 26 -14 0 58 9 122 21 143 11 22 18 38 15 37 -3 -1 -42 -14 -86 -27z"/>
<path d="M5910 1740 l-60 -14 70 -9 c72 -9 58 -23 -43 -45 -29 -6 -58 -26 -65
-44 -12 -31 -9 -31 37 -1 27 18 72 33 100 33 37 0 51 11 51 39 0 50 -16 57
-90 41z"/>
<path d="M4665 1673 c-25 -12 -45 -38 -45 -56 0 -19 -11 -38 -25 -44 -14 -5
28 -11 93 -11 65 -1 113 4 106 11 -8 7 -41 12 -74 11 -70 -2 -71 1 -28 67 18
27 29 48 25 47 -4 -2 -27 -13 -52 -25z"/>
<path d="M689 1633 c28 -26 51 -57 51 -68 0 -33 62 -48 93 -23 35 29 34 51 -2
65 -19 7 -25 1 -18 -18 20 -51 -30 -31 -76 31 -25 33 -57 60 -72 60 -16 0 -7
-19 24 -47z"/>
<path d="M1243 1653 c-15 -18 -21 -48 -14 -68 13 -33 15 -33 34 1 31 56 15
110 -20 67z"/>
<path d="M5070 1560 c-55 -14 -53 -15 24 -14 46 0 96 8 110 17 32 20 -49 19
-134 -3z"/>
<path d="M1693 1395 c13 -20 142 -19 155 1 5 9 -29 16 -77 15 -48 0 -83 -8
-78 -16z"/>
<path d="M4935 1406 c-19 -5 -35 -17 -35 -27 0 -11 -25 -19 -56 -19 -31 0 -74
-13 -95 -28 -58 -43 129 8 192 52 51 36 51 37 -6 22z"/>
<path d="M5610 1354 l-80 -44 58 -7 c38 -4 65 5 76 25 10 18 38 32 62 32 36 1
38 4 14 20 -38 25 -35 25 -130 -26z"/>
<path d="M5290 1324 c-51 -28 -54 -33 -21 -40 21 -5 48 5 60 22 13 17 45 34
72 39 l49 10 -50 0 c-27 0 -77 -14 -110 -31z"/>
<path d="M4248 1238 c-9 -26 -13 -60 -11 -75 4 -16 -4 -21 -18 -13 -17 11 -18
5 -1 -26 29 -54 28 -57 -9 -57 -17 0 -26 11 -20 26 16 42 -5 31 -30 -15 -18
-34 -18 -40 2 -27 18 11 22 6 13 -17 -7 -20 -3 -32 9 -29 12 3 27 -8 32 -23 7
-18 2 -22 -15 -12 -17 11 -21 8 -12 -7 8 -13 23 -19 32 -13 9 6 23 2 30 -10 7
-11 3 -20 -10 -20 -15 0 -15 -11 -1 -38 14 -26 14 -42 0 -49 -11 -5 -9 -8 6
-5 14 3 23 27 19 54 -4 40 -2 43 15 15 28 -44 69 -36 117 23 l39 48 33 -59
c24 -42 30 -46 22 -15 -10 37 -5 43 29 36 23 -4 37 0 31 10 -6 9 -1 23 11 31
15 9 20 -3 15 -34 -4 -26 -19 -45 -33 -42 -14 4 -20 -3 -13 -15 7 -11 22 -15
33 -8 27 17 83 149 69 163 -6 6 -17 -4 -24 -22 -7 -18 -19 -28 -28 -23 -8 5
-26 -3 -39 -19 -36 -43 -239 203 -209 252 8 14 5 18 -8 10 -12 -8 -30 1 -40
20 -17 29 -21 28 -36 -15z m103 -113 c41 -63 59 -101 39 -85 -34 28 -35 27
-13 -14 13 -25 36 -40 51 -34 15 6 33 -5 40 -24 11 -28 8 -30 -18 -8 -16 14
-30 18 -30 10 0 -8 -13 -4 -29 9 -16 14 -40 18 -54 9 -16 -10 -20 -5 -12 16 6
16 2 42 -9 58 -16 23 -18 22 -10 -4 17 -53 -15 -85 -46 -47 -22 26 -23 35 -2
48 17 10 19 20 6 29 -12 7 -18 37 -14 67 4 30 8 62 9 70 2 29 16 14 92 -100z
m-32 -155 c29 5 35 -1 26 -25 -8 -21 -4 -27 11 -17 16 9 19 3 11 -18 -10 -28
-15 -27 -39 4 -26 34 -27 34 -17 -4 12 -40 12 -40 -13 0 -14 22 -42 57 -62 79
-20 21 -36 47 -36 57 0 11 18 -4 40 -32 25 -32 56 -49 79 -44z"/>
<path d="M5350 1230 c0 -53 21 -62 70 -30 19 12 21 20 6 20 -14 0 -20 14 -13
30 7 20 -1 30 -26 30 -26 0 -37 -15 -37 -50z"/>
<path d="M3464 1076 c-28 -28 -32 -76 -7 -76 9 0 27 23 39 50 24 53 8 66 -32
26z"/>
<path d="M4100 979 c-12 -22 -30 -35 -41 -29 -10 7 -13 -2 -6 -20 10 -28 15
-27 41 4 27 34 29 34 18 1 -15 -48 2 -44 29 7 18 34 18 40 -2 27 -18 -11 -22
-6 -13 18 18 46 0 41 -26 -8z"/>
<path d="M3200 962 c0 -50 81 -59 119 -13 19 23 17 28 -12 27 -21 -1 -53 5
-72 13 -27 12 -35 6 -35 -27z"/>
<path d="M2849 901 c6 -10 3 -24 -9 -31 -11 -7 -20 -21 -20 -31 0 -28 55 -23
65 6 12 33 -4 75 -28 75 -11 0 -14 -8 -8 -19z"/>
<path d="M2620 881 c0 -21 37 -48 75 -54 35 -5 31 14 -10 45 -42 32 -65 35
-65 9z"/>
<path d="M4923 820 c1 -38 8 -92 17 -120 14 -43 16 -39 17 30 0 44 -8 98 -17
120 -14 32 -17 26 -17 -30z"/>
<path d="M3085 825 c-90 -30 -111 -74 -46 -95 24 -7 53 2 77 24 21 20 54 46
75 57 63 37 -10 47 -106 14z"/>
<path d="M5481 778 c1 -48 9 -124 18 -168 13 -57 15 -35 7 80 -12 176 -27 227
-25 88z"/>
<path d="M5442 718 c1 -70 9 -150 18 -178 9 -28 11 24 5 120 -13 204 -26 237
-23 58z"/>
<path d="M5706 730 c0 -66 4 -91 8 -55 5 36 5 90 0 120 -4 30 -8 1 -8 -65z"/>
<path d="M4548 770 c-32 -49 -72 -52 -60 -4 3 13 2 17 -3 9 -5 -8 -19 -9 -32
-2 -15 8 -14 3 2 -14 33 -36 32 -70 -1 -43 -19 17 -25 13 -25 -16 0 -31 6 -33
40 -15 23 12 45 18 50 13 5 -4 26 21 47 57 44 76 30 88 -18 15z"/>
<path d="M5315 660 c5 -93 17 -182 25 -197 19 -36 -1 274 -21 327 -8 22 -10
-36 -4 -130z"/>
<path d="M5350 750 c29 -273 31 -330 11 -330 -12 0 -21 -8 -21 -18 0 -16 66
-14 150 6 22 5 47 10 55 10 8 1 14 22 13 47 0 25 -6 34 -11 20 -6 -14 -19 -20
-29 -14 -10 6 -18 1 -18 -11 0 -12 -9 -17 -20 -10 -11 7 -20 1 -20 -14 -1 -19
-6 -18 -20 4 -17 27 -20 27 -22 0 -5 -52 -36 126 -38 220 -2 50 -11 108 -21
130 -12 29 -15 18 -9 -40z"/>
<path d="M5272 670 c15 -201 26 -295 38 -307 15 -15 -13 337 -32 397 -9 29
-11 -9 -6 -90z"/>
<path d="M5231 610 l7 -180 -17 146 c-24 203 -42 204 -32 2 l9 -168 -19 148
c-25 203 -40 203 -29 0 l8 -168 -19 140 c-28 202 -40 206 -30 10 l8 -170 -27
160 -27 160 7 -170 c5 -113 2 -143 -8 -90 -14 78 -15 79 -25 20 -8 -52 -12
-46 -26 46 -23 148 -37 115 -20 -46 9 -87 20 -125 31 -107 12 18 17 19 18 3 0
-18 21 -18 89 3 49 14 94 21 100 15 6 -6 12 7 12 28 2 36 3 36 18 -2 19 -49 3
232 -19 330 -11 47 -14 10 -9 -110z"/>
<path d="M5401 668 c1 -65 9 -136 19 -158 10 -24 12 21 5 110 -13 183 -25 209
-24 48z"/>
<path d="M2735 716 c-16 -45 12 -96 43 -77 23 14 23 23 -3 60 -21 30 -33 35
-40 17z"/>
<path d="M3640 700 c21 -14 23 -25 8 -35 -47 -32 -146 -305 -148 -410 0 -23
96 -18 110 5 7 12 23 15 34 7 13 -8 16 -4 8 10 -10 16 7 23 52 23 44 1 57 6
39 18 -21 13 -20 19 5 29 43 16 41 51 -3 43 -19 -4 -39 -9 -45 -11 -5 -2 -17
-2 -26 -1 -10 2 -12 -5 -7 -14 6 -9 -6 -32 -27 -50 -22 -19 -44 -24 -50 -13
-7 10 -7 19 0 19 6 0 2 18 -10 40 -18 35 -15 40 24 40 32 1 38 6 20 17 -16 10
-22 40 -17 75 5 32 10 65 11 73 1 8 17 15 35 15 19 0 28 5 22 12 -6 6 -4 37 5
70 15 51 12 58 -26 58 -36 -1 -39 -4 -14 -20z"/>
<path d="M5941 640 c-3 -58 -7 -63 -21 -30 -16 37 -17 36 -20 -10 -3 -46 -4
-47 -20 -10 -16 37 -17 36 -21 -10 -4 -47 -5 -47 -19 10 l-15 60 -5 -70 c-4
-65 -5 -67 -20 -20 l-16 50 -3 -50 c-4 -46 -5 -47 -21 -10 -16 37 -17 36 -21
-10 l-3 -50 -16 50 c-13 42 -16 43 -18 10 -2 -33 -6 -35 -22 -10 -16 25 -19
24 -20 -6 0 -20 -9 -31 -20 -24 -11 7 -21 -4 -21 -24 -2 -32 -4 -32 -19 4 -15
35 -17 33 -19 -18 -1 -57 0 -57 87 -45 127 17 140 21 157 43 9 13 14 11 15 -3
0 -13 16 -20 35 -17 19 4 51 8 70 8 38 2 44 78 15 192 l-15 60 -4 -70z"/>
<path d="M4371 660 c48 -97 117 -140 138 -85 11 29 9 30 -13 9 -21 -21 -36
-14 -83 40 -31 36 -50 53 -42 36z"/>
<path d="M4945 510 c0 -44 7 -107 15 -140 22 -87 23 8 1 130 l-16 90 0 -80z"/>
<path d="M4910 453 c9 -132 -10 -136 -31 -8 l-14 85 -1 -80 c0 -113 20 -173
52 -153 20 13 21 44 6 145 l-20 128 8 -117z"/>
<path d="M2571 522 c-6 -10 3 -44 19 -75 l30 -57 0 64 c0 64 -27 103 -49 68z"/>
<path d="M2723 494 c-13 -17 -6 -34 24 -56 41 -31 43 -30 43 15 0 53 -38 76
-67 41z"/>
<path d="M4819 430 l-6 -100 -8 85 c-4 47 -14 85 -22 85 -8 0 -12 -38 -10 -85
4 -85 4 -85 -12 -15 l-16 70 -5 -90 -5 -90 -15 70 -15 70 -5 -80 -5 -80 -15
70 -15 70 -5 -70 -4 -70 -18 88 c-24 125 -38 125 -28 0 7 -82 5 -94 -8 -48
-17 58 -17 58 -20 -23 l-2 -82 78 27 c43 14 103 31 133 36 72 14 71 9 51 143
l-17 119 -6 -100z"/>
<path d="M2000 400 c-64 -64 -140 -264 -140 -365 0 -8 131 -15 291 -15 l292 0
-42 53 c-50 64 -52 87 -5 87 45 0 110 -75 96 -112 -6 -15 -3 -28 7 -28 10 0
22 11 28 25 8 20 10 20 11 0 1 -16 33 -25 86 -25 l85 0 -50 35 c-27 19 -56 33
-64 30 -26 -8 -17 29 13 53 29 25 74 23 94 -4 6 -9 23 -2 37 15 21 25 20 32
-2 38 -15 4 -71 22 -125 40 -106 36 -150 30 -65 -9 64 -29 66 -41 11 -75 -23
-14 -36 -16 -29 -4 8 12 -3 27 -23 35 -20 7 -43 24 -51 38 -9 14 -60 50 -113
79 -57 31 -112 80 -132 117 -48 88 -116 86 -210 -8z m140 -126 c0 -41 9 -46
68 -41 40 3 78 -7 92 -23 13 -15 34 -25 46 -22 13 3 17 2 9 -3 -8 -5 -15 -22
-15 -38 0 -39 -49 -87 -89 -87 -37 0 -41 32 -6 47 15 6 11 10 -10 11 -19 1
-35 -6 -35 -16 0 -14 -53 -16 -150 -4 -11 1 -6 11 10 22 24 15 25 26 6 58 -19
31 -19 43 5 63 16 13 29 36 29 51 0 16 9 28 20 28 11 0 20 -21 20 -46z"/>
<path d="M3060 456 c0 -9 32 -16 70 -16 39 0 70 8 70 18 0 10 -31 17 -70 16
-38 -1 -70 -9 -70 -18z"/>
<path d="M2827 370 c-21 -17 -26 -29 -12 -29 41 -1 28 -30 -30 -66 -50 -31
-51 -34 -12 -34 23 -1 48 13 55 30 6 18 22 25 35 17 14 -9 18 -5 9 9 -9 14 -2
23 17 23 38 0 39 15 3 50 -23 24 -33 24 -65 0z"/>
<path d="M3202 347 c29 -34 104 -36 93 -2 -5 14 -32 26 -62 27 -42 2 -48 -3
-31 -25z"/>
<path d="M5260 258 c0 -13 -21 -19 -50 -13 -38 7 -50 1 -50 -26 0 -19 -14 -40
-32 -47 -18 -7 -27 -25 -21 -40 26 -69 -39 -101 -72 -35 -31 61 -31 63 15 75
26 6 52 24 58 40 12 32 -19 39 -38 8 -7 -11 -34 -20 -61 -20 -34 0 -45 -8 -36
-30 8 -21 -2 -30 -31 -30 -23 0 -42 11 -42 24 0 18 -6 18 -25 -1 -20 -20 -19
-29 5 -44 27 -17 27 -21 0 -39 -40 -26 -71 -13 -64 27 4 23 -8 33 -40 31 -25
0 -35 -6 -21 -11 40 -16 29 -47 -17 -47 -29 0 -39 9 -31 30 7 18 1 30 -15 30
-15 0 -33 -13 -39 -29 -7 -18 -46 -31 -105 -35 -86 -5 -157 -56 -80 -56 18 0
32 7 32 16 0 8 43 13 95 11 52 -2 95 -5 95 -6 0 -30 167 -12 202 21 27 25 62
38 91 33 46 -8 45 -9 -13 -36 l-60 -28 94 -7 c52 -3 112 3 134 15 50 27 108
27 92 1 -7 -11 -3 -20 9 -20 11 0 21 7 21 15 0 32 126 87 148 65 15 -15 9 -25
-23 -33 -73 -19 -52 -37 48 -41 58 -2 103 8 121 25 37 37 64 37 79 -1 6 -16
21 -30 32 -30 12 0 16 6 9 13 -19 19 111 84 144 71 19 -7 11 -19 -25 -38 -70
-36 -71 -36 67 -39 116 -3 120 -1 120 48 0 48 -2 49 -37 18 -40 -37 -83 -44
-83 -13 0 11 12 20 27 20 15 0 43 18 63 40 31 34 31 40 5 40 -17 0 -36 -14
-43 -32 -10 -25 -28 -29 -84 -19 -46 9 -82 4 -102 -12 -16 -14 -64 -23 -104
-20 -49 4 -84 -5 -101 -26 -28 -34 -81 -42 -81 -12 0 10 8 24 18 30 51 31 -50
131 -133 131 -15 0 -21 10 -14 21 7 12 41 16 76 10 49 -8 54 -7 23 8 -57 26
-150 25 -150 -1z m28 -53 c9 -8 34 -15 57 -15 23 0 46 -13 51 -28 7 -21 -4
-24 -43 -14 -44 11 -53 6 -53 -28 0 -47 -42 -51 -130 -11 -55 24 -57 27 -20
42 22 9 47 28 56 42 18 30 59 35 82 12z"/>
<path d="M5667 250 c-6 -16 -24 -30 -40 -30 -34 0 -127 -58 -127 -80 0 -21
173 -5 222 21 23 12 56 16 74 9 44 -16 184 52 183 90 0 24 -3 25 -17 3 -14
-22 -24 -22 -58 -1 -35 22 -53 21 -113 -7 -61 -30 -71 -30 -71 -5 0 39 -38 39
-53 0z"/>
<path d="M1760 218 c0 -12 -12 -17 -28 -12 -20 8 -25 -1 -18 -32 8 -42 7 -42
-21 -8 -36 44 -75 -3 -58 -69 7 -28 2 -35 -23 -25 -24 9 -29 4 -20 -20 8 -20
36 -32 79 -32 67 0 110 30 66 44 -16 6 -18 23 -8 47 15 38 16 38 31 -1 12 -29
16 -16 14 45 -2 73 -14 126 -14 63z"/>
<path d="M3296 81 c-7 -49 -2 -61 27 -61 44 0 44 1 9 69 l-27 53 -9 -61z"/>
<path d="M3195 66 c-30 -5 -55 -18 -55 -29 0 -28 125 -12 135 18 5 14 1 24 -8
22 -9 -2 -42 -7 -72 -11z"/>
</g>
</svg>
